<svg width="30" height="23" viewBox="0 0 30 23" fill="none" xmlns="http://www.w3.org/2000/svg">
<path d="M0 9.76549C0 4.37215 4.37216 0 9.76549 0H20.2345C25.6278 0 30 4.37216 30 9.76549C30 15.1588 25.6278 19.531 20.2345 19.531H16.7371C16.3598 19.531 15.9924 19.6517 15.6885 19.8754L11.4453 23L10.4069 20.3193C10.2229 19.8442 9.7657 19.531 9.25612 19.531C4.1441 19.531 0 15.3869 0 10.2749V9.76549Z" fill="url(#paint0_linear_6817_41170)"/>
<path d="M14.964 12.404H11.628L11.076 14H9.312L12.324 5.612H14.28L17.292 14H15.516L14.964 12.404ZM14.508 11.06L13.296 7.556L12.084 11.06H14.508ZM20.0978 5.624V14H18.4178V5.624H20.0978Z" fill="white"/>
<defs>
<linearGradient id="paint0_linear_6817_41170" x1="2.16279" y1="2.5" x2="25.6723" y2="12.6098" gradientUnits="userSpaceOnUse">
<stop stop-color="#BC4EFF"/>
<stop offset="1" stop-color="#5942FF"/>
</linearGradient>
</defs>
</svg>
