<svg width="24" height="24" viewBox="0 0 24 24" fill="none" xmlns="http://www.w3.org/2000/svg">
<path d="M19.1562 14.6792C19.1562 15.473 19.7961 16.1366 20.5781 16.1366C21.372 16.1366 22 15.473 22 14.6792V9.06255C22 8.25694 21.372 7.61719 20.5781 7.61719C19.7961 7.61719 19.1562 8.25694 19.1562 9.06255V14.6792Z" fill="white"/>
<path d="M14.0728 4.29918C14.0728 3.92003 14.3927 3.61182 14.7719 3.61182C15.1629 3.61182 15.4829 3.92003 15.4829 4.29918C15.4829 4.6902 15.1629 4.99839 14.7719 4.99839C14.3927 4.99839 14.0728 4.6902 14.0728 4.29918Z" fill="white"/>
<path d="M8.67041 4.29918C8.67041 3.92003 8.97836 3.61182 9.35751 3.61182C9.74853 3.61182 10.0566 3.92003 10.0566 4.29918C10.0566 4.6902 9.7485 4.99839 9.35751 4.99839C8.97836 4.99839 8.67041 4.6902 8.67041 4.29918Z" fill="white"/>
<path d="M5.74316 17.9492C5.74316 18.5653 6.22899 19.0628 6.85696 19.0628H8.11298V22.1909C8.11298 22.9732 8.72911 23.6367 9.53474 23.6367C10.3049 23.6367 10.9566 22.9732 10.9566 22.1909V19.0628H13.1605V22.1909C13.1605 22.9732 13.7648 23.6367 14.5705 23.6367C15.3645 23.6367 15.9925 22.9732 15.9925 22.1909V19.0628H17.2483C17.8763 19.0628 18.3622 18.5653 18.3622 17.9492V7.65234H5.74316V17.9492Z" fill="white"/>
<path d="M18.3373 6.75206C18.1477 4.80894 16.868 3.18546 15.0196 2.33232L16.1809 0.638044C16.2572 0.526472 16.2401 0.388988 16.1453 0.341694C16.0505 0.282562 15.944 0.317993 15.8609 0.412795L14.6404 2.16658C13.8229 1.87034 12.958 1.68076 12.0219 1.68076C11.0858 1.68076 10.1971 1.87034 9.39142 2.16658L8.19474 0.412795C8.1118 0.317993 8.00516 0.258862 7.91036 0.341694C7.81559 0.400958 7.78597 0.526686 7.86296 0.638044L9.03588 2.33232C7.18756 3.2093 5.88417 4.79697 5.71826 6.75206H18.3373Z" fill="white"/>
<path d="M2.0459 14.6792C2.0459 15.473 2.66203 16.1366 3.4678 16.1366C4.23797 16.1366 4.88967 15.473 4.88967 14.6792V9.06255C4.88967 8.25694 4.23797 7.61719 3.4678 7.61719C2.66203 7.61719 2.0459 8.25694 2.0459 9.06255V14.6792Z" fill="white"/>
</svg>
