<svg width="201" height="64" viewBox="0 0 201 64" fill="none" xmlns="http://www.w3.org/2000/svg">
<rect x="0.334961" width="200" height="64" rx="32" fill="#6B57FF"/>
<path d="M41.0088 37.552C41.0088 37.3067 41.0301 37.0187 41.0728 36.688C41.1154 36.3573 41.1954 35.984 41.3128 35.568C41.4301 35.1413 41.6061 34.6667 41.8408 34.144L43.8088 34.832C43.6914 35.1627 43.5901 35.4667 43.5048 35.744C43.4194 36.0107 43.3554 36.2613 43.3128 36.496C43.2701 36.72 43.2488 36.944 43.2488 37.168C43.2488 37.6907 43.3661 38.1173 43.6008 38.448C43.8461 38.7893 44.1874 39.04 44.6248 39.2C45.0621 39.3707 45.5688 39.456 46.1448 39.456C46.8061 39.456 47.3501 39.3653 47.7768 39.184C48.2034 39.0133 48.5341 38.784 48.7688 38.496C49.0034 38.2187 49.1688 37.9147 49.2648 37.584C49.3608 37.2427 49.4088 36.912 49.4088 36.592C49.4088 36.1547 49.3341 35.6373 49.1848 35.04C49.0354 34.432 48.7688 33.7493 48.3848 32.992L50.4488 32.112C50.6621 32.4853 50.8594 32.9227 51.0408 33.424C51.2221 33.9147 51.3661 34.4267 51.4728 34.96C51.5901 35.4933 51.6488 36 51.6488 36.48C51.6488 36.9067 51.5954 37.36 51.4888 37.84C51.3821 38.3093 51.2008 38.7733 50.9448 39.232C50.6994 39.6907 50.3634 40.1013 49.9368 40.464C49.5101 40.8373 48.9821 41.136 48.3528 41.36C47.7234 41.584 46.9714 41.696 46.0968 41.696C45.3928 41.696 44.7314 41.616 44.1128 41.456C43.5048 41.3067 42.9661 41.0667 42.4968 40.736C42.0381 40.4053 41.6754 39.9733 41.4088 39.44C41.1421 38.9173 41.0088 38.288 41.0088 37.552ZM46.2248 31.472C45.8941 31.472 45.6114 31.36 45.3768 31.136C45.1528 30.912 45.0408 30.6347 45.0408 30.304C45.0408 29.9733 45.1528 29.6907 45.3768 29.456C45.6114 29.2213 45.8941 29.104 46.2248 29.104C46.5448 29.104 46.8168 29.2213 47.0408 29.456C47.2754 29.6907 47.3928 29.9733 47.3928 30.304C47.3928 30.6347 47.2754 30.912 47.0408 31.136C46.8168 31.36 46.5448 31.472 46.2248 31.472ZM60.0361 29.424C60.0361 29.072 60.0148 28.72 59.9721 28.368C59.9401 28.016 59.8975 27.6853 59.8441 27.376C59.7908 27.056 59.7428 26.7787 59.7001 26.544L61.9401 26.224C61.9828 26.4373 62.0255 26.72 62.0681 27.072C62.1108 27.424 62.1481 27.7973 62.1801 28.192C62.2121 28.576 62.2281 28.944 62.2281 29.296C62.2281 29.8507 62.1801 30.3733 62.0841 30.864C61.9881 31.3547 61.8441 31.8187 61.6521 32.256C61.4601 32.6827 61.2201 33.0933 60.9321 33.488L60.6441 33.872C60.3668 34.2133 60.0415 34.5493 59.6681 34.88C59.3055 35.2107 58.9055 35.5307 58.4681 35.84H59.5081C59.8708 35.84 60.1481 35.8187 60.3401 35.776C60.5321 35.7333 60.6601 35.6747 60.7241 35.6C60.7988 35.5147 60.8361 35.4187 60.8361 35.312C60.8361 35.12 60.6708 34.8373 60.3401 34.464C60.0095 34.08 59.5508 33.6427 58.9641 33.152C58.3775 32.6507 57.6895 32.1227 56.9001 31.568C56.1215 31.0027 55.2788 30.4373 54.3721 29.872L55.5401 28.16C56.7988 28.9387 57.8601 29.6533 58.7241 30.304C59.5988 30.9547 60.3135 31.5467 60.8681 32.08C61.4335 32.6133 61.8708 33.0987 62.1801 33.536C62.4895 33.9733 62.7028 34.368 62.8201 34.72C62.9375 35.0613 62.9961 35.3707 62.9961 35.648C62.9961 35.9573 62.9481 36.256 62.8521 36.544C62.7561 36.8213 62.6015 37.072 62.3881 37.296C62.1748 37.5093 61.8975 37.68 61.5561 37.808C61.2148 37.936 60.7935 38 60.2921 38H55.5881V35.856C56.6868 35.0667 57.5561 34.32 58.1961 33.616C58.8468 32.912 59.3161 32.2187 59.6041 31.536C59.8921 30.8533 60.0361 30.1493 60.0361 29.424ZM57.0121 27.488C56.6921 27.488 56.4041 27.4347 56.1481 27.328C55.8921 27.2107 55.6575 27.0987 55.4441 26.992C55.2308 26.8853 55.0335 26.832 54.8521 26.832C54.6601 26.832 54.4841 26.88 54.3241 26.976C54.1748 27.072 54.0148 27.2053 53.8441 27.376L53.0921 26.672C53.3801 26.3093 53.6681 26.0373 53.9561 25.856C54.2548 25.6747 54.5535 25.584 54.8521 25.584C55.1188 25.584 55.3641 25.6373 55.5881 25.744C55.8121 25.8507 56.0361 25.9573 56.2601 26.064C56.4948 26.1707 56.7455 26.224 57.0121 26.224C57.1828 26.224 57.3428 26.1973 57.4921 26.144C57.6415 26.08 57.8228 25.984 58.0361 25.856L58.5961 26.736C58.2121 27.0667 57.8921 27.2747 57.6361 27.36C57.3908 27.4453 57.1828 27.488 57.0121 27.488ZM65.1228 38L64.7868 26.288H67.0268L67.3628 38H65.1228ZM72.0244 37.552C72.0244 37.3067 72.0457 37.0187 72.0884 36.688C72.1311 36.3573 72.2111 35.984 72.3284 35.568C72.4457 35.1413 72.6217 34.6667 72.8564 34.144L74.8244 34.832C74.7071 35.1627 74.6057 35.4667 74.5204 35.744C74.4351 36.0107 74.3711 36.2613 74.3284 36.496C74.2857 36.72 74.2644 36.944 74.2644 37.168C74.2644 37.488 74.3337 37.7867 74.4724 38.064C74.6111 38.3413 74.8191 38.5813 75.0964 38.784C75.3737 38.9973 75.7151 39.1627 76.1204 39.28C76.5364 39.3973 77.0164 39.456 77.5604 39.456C78.1791 39.456 78.7231 39.3973 79.1924 39.28C79.6724 39.1733 80.0724 39.0293 80.3924 38.848C80.7231 38.6773 80.9737 38.496 81.1444 38.304C81.3151 38.112 81.4004 37.936 81.4004 37.776C81.4004 37.648 81.3097 37.536 81.1284 37.44C80.9577 37.344 80.7284 37.248 80.4404 37.152C80.1631 37.0453 79.8644 36.928 79.5444 36.8C79.2351 36.672 78.9364 36.512 78.6484 36.32C78.3711 36.128 78.1417 35.8933 77.9604 35.616C77.7897 35.3387 77.7044 35.0027 77.7044 34.608C77.7044 34.2027 77.8111 33.76 78.0244 33.28C78.2377 32.7893 78.5417 32.3253 78.9364 31.888C79.3311 31.44 79.8004 31.0773 80.3444 30.8C80.8991 30.512 81.5071 30.368 82.1684 30.368C82.6377 30.368 83.0644 30.4427 83.4484 30.592C83.8431 30.7413 84.1737 30.912 84.4404 31.104L83.6084 32.976C83.3844 32.8267 83.1444 32.7147 82.8884 32.64C82.6324 32.5547 82.3871 32.512 82.1524 32.512C81.8537 32.512 81.5657 32.5707 81.2884 32.688C81.0217 32.8053 80.7817 32.96 80.5684 33.152C80.3657 33.3333 80.2057 33.5307 80.0884 33.744C79.9711 33.9573 79.9124 34.16 79.9124 34.352C79.9124 34.544 80.0031 34.7147 80.1844 34.864C80.3764 35.0027 80.6217 35.136 80.9204 35.264C81.2191 35.3813 81.5337 35.504 81.8644 35.632C82.1951 35.76 82.5097 35.904 82.8084 36.064C83.1071 36.224 83.3471 36.416 83.5284 36.64C83.7204 36.864 83.8164 37.136 83.8164 37.456C83.8164 37.9147 83.6724 38.3893 83.3844 38.88C83.1071 39.3813 82.6911 39.8453 82.1364 40.272C81.5817 40.6987 80.8991 41.04 80.0884 41.296C79.2884 41.5627 78.3604 41.696 77.3044 41.696C76.5364 41.696 75.8324 41.6053 75.1924 41.424C74.5524 41.2533 73.9924 40.992 73.5124 40.64C73.0431 40.2987 72.6751 39.8667 72.4084 39.344C72.1524 38.832 72.0244 38.2347 72.0244 37.552ZM78.7604 45.408C78.4511 45.408 78.1844 45.296 77.9604 45.072C77.7471 44.8587 77.6404 44.6027 77.6404 44.304C77.6404 43.9947 77.7471 43.728 77.9604 43.504C78.1844 43.28 78.4511 43.168 78.7604 43.168C79.0591 43.168 79.3151 43.28 79.5284 43.504C79.7417 43.728 79.8484 43.9947 79.8484 44.304C79.8484 44.6027 79.7417 44.8587 79.5284 45.072C79.3151 45.296 79.0591 45.408 78.7604 45.408ZM75.9924 45.408C75.6831 45.408 75.4164 45.296 75.1924 45.072C74.9791 44.8587 74.8724 44.6027 74.8724 44.304C74.8724 43.9947 74.9791 43.728 75.1924 43.504C75.4164 43.28 75.6831 43.168 75.9924 43.168C76.2911 43.168 76.5471 43.28 76.7604 43.504C76.9737 43.728 77.0804 43.9947 77.0804 44.304C77.0804 44.6027 76.9737 44.8587 76.7604 45.072C76.5471 45.296 76.2911 45.408 75.9924 45.408ZM85.005 41.696L84.189 39.712C84.7544 39.52 85.2717 39.296 85.741 39.04C86.221 38.784 86.637 38.5013 86.989 38.192C87.341 37.8827 87.613 37.5467 87.805 37.184C87.997 36.8107 88.093 36.4107 88.093 35.984C88.093 35.536 87.9917 35.0453 87.789 34.512C87.5864 33.9787 87.341 33.4347 87.053 32.88L89.149 31.872C89.341 32.2027 89.5064 32.56 89.645 32.944C89.7944 33.3173 89.917 33.6533 90.013 33.952C90.109 34.2507 90.173 34.4533 90.205 34.56C90.3544 35.072 90.557 35.4133 90.813 35.584C91.0797 35.7547 91.5064 35.84 92.093 35.84C92.4984 35.84 92.7864 35.9467 92.957 36.16C93.1384 36.3627 93.229 36.6187 93.229 36.928C93.229 37.2587 93.117 37.536 92.893 37.76C92.669 37.9733 92.349 38.08 91.933 38.08C91.4957 38.08 91.1117 38.016 90.781 37.888C90.4504 37.76 90.1837 37.5733 89.981 37.328C89.789 37.0827 89.6664 36.7947 89.613 36.464L90.205 36.8C90.141 37.3653 89.9544 37.8987 89.645 38.4C89.3464 38.912 88.957 39.3813 88.477 39.808C87.997 40.2347 87.4584 40.608 86.861 40.928C86.2637 41.248 85.645 41.504 85.005 41.696ZM91.9521 38.08L92.1121 35.84C92.4961 35.84 92.8268 35.8027 93.1041 35.728C93.3815 35.6533 93.6161 35.504 93.8081 35.28C94.0001 35.0453 94.1601 34.704 94.2881 34.256C94.4268 33.808 94.5495 33.2107 94.6561 32.464L96.7521 32.816C96.7308 32.976 96.6988 33.1627 96.6561 33.376C96.6241 33.5893 96.5921 33.808 96.5601 34.032C96.5388 34.2453 96.5281 34.448 96.5281 34.64C96.5281 34.832 96.5655 35.0027 96.6401 35.152C96.7148 35.3013 96.8321 35.4293 96.9921 35.536C97.1628 35.632 97.3815 35.7067 97.6481 35.76C97.9255 35.8133 98.2615 35.84 98.6561 35.84C99.0615 35.84 99.3495 35.9467 99.5201 36.16C99.6908 36.3627 99.7761 36.6187 99.7761 36.928C99.7761 37.2587 99.6641 37.536 99.4401 37.76C99.2268 37.9733 98.9121 38.08 98.4961 38.08C98.0161 38.08 97.5788 38.0427 97.1841 37.968C96.8001 37.8933 96.4641 37.7707 96.1761 37.6C95.8988 37.4187 95.6695 37.184 95.4881 36.896C95.3175 36.5973 95.2108 36.2347 95.1681 35.808H95.9361C95.7441 36.32 95.4988 36.7307 95.2001 37.04C94.9121 37.3387 94.5868 37.5627 94.2241 37.712C93.8615 37.8613 93.4828 37.9573 93.0881 38C92.7041 38.0533 92.3255 38.08 91.9521 38.08ZM97.0881 31.024C96.7788 31.024 96.5121 30.9173 96.2881 30.704C96.0748 30.48 95.9681 30.2187 95.9681 29.92C95.9681 29.6107 96.0748 29.344 96.2881 29.12C96.5121 28.896 96.7788 28.784 97.0881 28.784C97.3868 28.784 97.6428 28.896 97.8561 29.12C98.0695 29.344 98.1761 29.6107 98.1761 29.92C98.1761 30.2187 98.0695 30.48 97.8561 30.704C97.6428 30.9173 97.3868 31.024 97.0881 31.024ZM94.3201 31.008C94.0108 31.008 93.7441 30.9013 93.5201 30.688C93.3068 30.464 93.2001 30.2027 93.2001 29.904C93.2001 29.5947 93.3068 29.328 93.5201 29.104C93.7441 28.88 94.0108 28.768 94.3201 28.768C94.6188 28.768 94.8748 28.88 95.0881 29.104C95.3015 29.328 95.4081 29.5947 95.4081 29.904C95.4081 30.2027 95.3015 30.464 95.0881 30.688C94.8748 30.9013 94.6188 31.008 94.3201 31.008ZM98.499 38.08L98.659 35.84C99.011 35.84 99.299 35.8133 99.523 35.76C99.747 35.696 99.9284 35.5627 100.067 35.36C100.216 35.1467 100.344 34.832 100.451 34.416C100.568 33.9893 100.696 33.4133 100.835 32.688L102.915 33.072C102.883 33.232 102.846 33.4187 102.803 33.632C102.76 33.8453 102.723 34.064 102.691 34.288C102.659 34.5013 102.643 34.6933 102.643 34.864C102.643 35.1627 102.739 35.4027 102.931 35.584C103.123 35.7547 103.486 35.84 104.019 35.84C104.286 35.84 104.515 35.8133 104.707 35.76C104.91 35.696 105.08 35.5627 105.219 35.36C105.368 35.1467 105.496 34.8213 105.603 34.384C105.72 33.936 105.832 33.3333 105.939 32.576L108.051 32.912C108.008 33.1573 107.966 33.4187 107.923 33.696C107.88 33.9733 107.843 34.2293 107.811 34.464C107.779 34.6987 107.763 34.8907 107.763 35.04C107.763 35.1787 107.8 35.312 107.875 35.44C107.96 35.5573 108.11 35.6533 108.323 35.728C108.547 35.8027 108.862 35.84 109.267 35.84C109.555 35.84 109.8 35.8027 110.003 35.728C110.216 35.6533 110.376 35.5307 110.483 35.36C110.6 35.1893 110.659 34.9653 110.659 34.688C110.659 34.2933 110.568 33.776 110.387 33.136C110.206 32.496 109.992 31.824 109.747 31.12L112.003 30.448C112.174 30.9067 112.323 31.3973 112.451 31.92C112.59 32.432 112.696 32.9333 112.771 33.424C112.856 33.904 112.899 34.3253 112.899 34.688C112.899 35.232 112.814 35.7173 112.643 36.144C112.472 36.56 112.232 36.912 111.923 37.2C111.614 37.488 111.246 37.7067 110.819 37.856C110.392 38.0053 109.923 38.08 109.411 38.08C108.792 38.08 108.286 38.0213 107.891 37.904C107.496 37.776 107.192 37.568 106.979 37.28C106.776 36.9813 106.643 36.576 106.579 36.064H107.123C106.899 36.6933 106.648 37.152 106.371 37.44C106.094 37.7173 105.763 37.8933 105.379 37.968C105.006 38.0427 104.536 38.08 103.971 38.08C103.619 38.08 103.256 38.0427 102.883 37.968C102.52 37.8827 102.195 37.6907 101.907 37.392C101.619 37.0933 101.406 36.6293 101.267 36L102.131 35.968C101.907 36.5973 101.614 37.0613 101.251 37.36C100.899 37.6587 100.494 37.856 100.035 37.952C99.5764 38.0373 99.0644 38.08 98.499 38.08ZM106.867 28.176C106.6 28.176 106.366 28.0747 106.163 27.872C105.971 27.6693 105.875 27.4293 105.875 27.152C105.875 26.8747 105.971 26.64 106.163 26.448C106.366 26.256 106.6 26.16 106.867 26.16C107.144 26.16 107.379 26.256 107.571 26.448C107.763 26.64 107.859 26.8747 107.859 27.152C107.859 27.4293 107.763 27.6693 107.571 27.872C107.379 28.0747 107.144 28.176 106.867 28.176ZM105.587 30.288C105.32 30.288 105.086 30.1867 104.883 29.984C104.691 29.7813 104.595 29.5413 104.595 29.264C104.595 28.9867 104.691 28.752 104.883 28.56C105.086 28.368 105.32 28.272 105.587 28.272C105.864 28.272 106.099 28.368 106.291 28.56C106.483 28.752 106.579 28.9867 106.579 29.264C106.579 29.5413 106.483 29.7813 106.291 29.984C106.099 30.1867 105.864 30.288 105.587 30.288ZM108.067 30.288C107.8 30.288 107.566 30.1867 107.363 29.984C107.171 29.7813 107.075 29.5413 107.075 29.264C107.075 28.9867 107.171 28.752 107.363 28.56C107.566 28.368 107.8 28.272 108.067 28.272C108.344 28.272 108.579 28.368 108.771 28.56C108.963 28.752 109.059 28.9867 109.059 29.264C109.059 29.5413 108.963 29.7813 108.771 29.984C108.579 30.1867 108.344 30.288 108.067 30.288ZM114.982 38L114.646 26.288H116.886L117.222 38H114.982Z" fill="white"/>
<path fill-rule="evenodd" clip-rule="evenodd" d="M141.841 33.6517C141.841 30.4412 143.133 26.3666 145.213 23.0185C146.239 21.3668 147.37 20.0269 148.544 19.0447L132.335 19V40.4772V43.9553H148.063V34.5214H141.841V33.6517ZM139.594 28.435C139.594 29.0112 139.13 29.4784 138.557 29.4784C137.984 29.4784 137.52 29.0112 137.52 28.435V25.3049C137.52 24.7287 137.984 24.2615 138.557 24.2615C139.13 24.2615 139.594 24.7287 139.594 25.3049V28.435ZM160.335 19L151.958 19.0447C148.002 20.2378 144.006 27.3748 143.603 32.7821H149.792V43.9553L160.335 44V19ZM155.15 28.435C155.15 29.0112 154.685 29.4784 154.113 29.4784C153.54 29.4784 153.076 29.0112 153.076 28.435V25.3049C153.076 24.7287 153.54 24.2615 154.113 24.2615C154.685 24.2615 155.15 24.7287 155.15 25.3049V28.435Z" fill="white"/>
</svg>
