<svg width="200" height="64" viewBox="0 0 200 64" fill="none" xmlns="http://www.w3.org/2000/svg">
<rect width="200" height="64" rx="32" fill="#6B57FF"/>
<path d="M40.6738 37.552C40.6738 37.3067 40.6951 37.0187 40.7378 36.688C40.7805 36.3573 40.8605 35.984 40.9778 35.568C41.0951 35.1413 41.2711 34.6667 41.5058 34.144L43.4738 34.832C43.3565 35.1627 43.2551 35.4667 43.1698 35.744C43.0845 36.0107 43.0205 36.2613 42.9778 36.496C42.9351 36.72 42.9138 36.944 42.9138 37.168C42.9138 37.6907 43.0311 38.1173 43.2658 38.448C43.5111 38.7893 43.8525 39.04 44.2898 39.2C44.7271 39.3707 45.2338 39.456 45.8098 39.456C46.4711 39.456 47.0151 39.3653 47.4418 39.184C47.8685 39.0133 48.1991 38.784 48.4338 38.496C48.6685 38.2187 48.8338 37.9147 48.9298 37.584C49.0258 37.2427 49.0738 36.912 49.0738 36.592C49.0738 36.1547 48.9991 35.6373 48.8498 35.04C48.7005 34.432 48.4338 33.7493 48.0498 32.992L50.1138 32.112C50.3271 32.4853 50.5245 32.9227 50.7058 33.424C50.8871 33.9147 51.0311 34.4267 51.1378 34.96C51.2551 35.4933 51.3138 36 51.3138 36.48C51.3138 36.9067 51.2605 37.36 51.1538 37.84C51.0471 38.3093 50.8658 38.7733 50.6098 39.232C50.3645 39.6907 50.0285 40.1013 49.6018 40.464C49.1751 40.8373 48.6471 41.136 48.0178 41.36C47.3885 41.584 46.6365 41.696 45.7618 41.696C45.0578 41.696 44.3965 41.616 43.7778 41.456C43.1698 41.3067 42.6311 41.0667 42.1618 40.736C41.7031 40.4053 41.3405 39.9733 41.0738 39.44C40.8071 38.9173 40.6738 38.288 40.6738 37.552ZM45.8898 31.472C45.5591 31.472 45.2765 31.36 45.0418 31.136C44.8178 30.912 44.7058 30.6347 44.7058 30.304C44.7058 29.9733 44.8178 29.6907 45.0418 29.456C45.2765 29.2213 45.5591 29.104 45.8898 29.104C46.2098 29.104 46.4818 29.2213 46.7058 29.456C46.9405 29.6907 47.0578 29.9733 47.0578 30.304C47.0578 30.6347 46.9405 30.912 46.7058 31.136C46.4818 31.36 46.2098 31.472 45.8898 31.472ZM59.7012 29.424C59.7012 29.072 59.6799 28.72 59.6372 28.368C59.6052 28.016 59.5625 27.6853 59.5092 27.376C59.4559 27.056 59.4079 26.7787 59.3652 26.544L61.6052 26.224C61.6479 26.4373 61.6905 26.72 61.7332 27.072C61.7759 27.424 61.8132 27.7973 61.8452 28.192C61.8772 28.576 61.8932 28.944 61.8932 29.296C61.8932 29.8507 61.8452 30.3733 61.7492 30.864C61.6532 31.3547 61.5092 31.8187 61.3172 32.256C61.1252 32.6827 60.8852 33.0933 60.5972 33.488L60.3092 33.872C60.0319 34.2133 59.7065 34.5493 59.3332 34.88C58.9705 35.2107 58.5705 35.5307 58.1332 35.84H59.1732C59.5359 35.84 59.8132 35.8187 60.0052 35.776C60.1972 35.7333 60.3252 35.6747 60.3892 35.6C60.4639 35.5147 60.5012 35.4187 60.5012 35.312C60.5012 35.12 60.3359 34.8373 60.0052 34.464C59.6745 34.08 59.2159 33.6427 58.6292 33.152C58.0425 32.6507 57.3545 32.1227 56.5652 31.568C55.7865 31.0027 54.9439 30.4373 54.0372 29.872L55.2052 28.16C56.4639 28.9387 57.5252 29.6533 58.3892 30.304C59.2639 30.9547 59.9785 31.5467 60.5332 32.08C61.0985 32.6133 61.5359 33.0987 61.8452 33.536C62.1545 33.9733 62.3679 34.368 62.4852 34.72C62.6025 35.0613 62.6612 35.3707 62.6612 35.648C62.6612 35.9573 62.6132 36.256 62.5172 36.544C62.4212 36.8213 62.2665 37.072 62.0532 37.296C61.8399 37.5093 61.5625 37.68 61.2212 37.808C60.8799 37.936 60.4585 38 59.9572 38H55.2532V35.856C56.3519 35.0667 57.2212 34.32 57.8612 33.616C58.5119 32.912 58.9812 32.2187 59.2692 31.536C59.5572 30.8533 59.7012 30.1493 59.7012 29.424ZM56.6772 27.488C56.3572 27.488 56.0692 27.4347 55.8132 27.328C55.5572 27.2107 55.3225 27.0987 55.1092 26.992C54.8959 26.8853 54.6985 26.832 54.5172 26.832C54.3252 26.832 54.1492 26.88 53.9892 26.976C53.8399 27.072 53.6799 27.2053 53.5092 27.376L52.7572 26.672C53.0452 26.3093 53.3332 26.0373 53.6212 25.856C53.9199 25.6747 54.2185 25.584 54.5172 25.584C54.7839 25.584 55.0292 25.6373 55.2532 25.744C55.4772 25.8507 55.7012 25.9573 55.9252 26.064C56.1599 26.1707 56.4105 26.224 56.6772 26.224C56.8479 26.224 57.0079 26.1973 57.1572 26.144C57.3065 26.08 57.4879 25.984 57.7012 25.856L58.2612 26.736C57.8772 27.0667 57.5572 27.2747 57.3012 27.36C57.0559 27.4453 56.8479 27.488 56.6772 27.488ZM64.7878 38L64.4518 26.288H66.6918L67.0278 38H64.7878ZM71.6894 37.552C71.6894 37.3067 71.7108 37.0187 71.7534 36.688C71.7961 36.3573 71.8761 35.984 71.9934 35.568C72.1108 35.1413 72.2868 34.6667 72.5214 34.144L74.4894 34.832C74.3721 35.1627 74.2708 35.4667 74.1854 35.744C74.1001 36.0107 74.0361 36.2613 73.9934 36.496C73.9508 36.72 73.9294 36.944 73.9294 37.168C73.9294 37.488 73.9988 37.7867 74.1374 38.064C74.2761 38.3413 74.4841 38.5813 74.7614 38.784C75.0388 38.9973 75.3801 39.1627 75.7854 39.28C76.2014 39.3973 76.6814 39.456 77.2254 39.456C77.8441 39.456 78.3881 39.3973 78.8574 39.28C79.3374 39.1733 79.7374 39.0293 80.0574 38.848C80.3881 38.6773 80.6388 38.496 80.8094 38.304C80.9801 38.112 81.0654 37.936 81.0654 37.776C81.0654 37.648 80.9748 37.536 80.7934 37.44C80.6228 37.344 80.3934 37.248 80.1054 37.152C79.8281 37.0453 79.5294 36.928 79.2094 36.8C78.9001 36.672 78.6014 36.512 78.3134 36.32C78.0361 36.128 77.8068 35.8933 77.6254 35.616C77.4548 35.3387 77.3694 35.0027 77.3694 34.608C77.3694 34.2027 77.4761 33.76 77.6894 33.28C77.9028 32.7893 78.2068 32.3253 78.6014 31.888C78.9961 31.44 79.4654 31.0773 80.0094 30.8C80.5641 30.512 81.1721 30.368 81.8334 30.368C82.3028 30.368 82.7294 30.4427 83.1134 30.592C83.5081 30.7413 83.8388 30.912 84.1054 31.104L83.2734 32.976C83.0494 32.8267 82.8094 32.7147 82.5534 32.64C82.2974 32.5547 82.0521 32.512 81.8174 32.512C81.5188 32.512 81.2308 32.5707 80.9534 32.688C80.6868 32.8053 80.4468 32.96 80.2334 33.152C80.0308 33.3333 79.8708 33.5307 79.7534 33.744C79.6361 33.9573 79.5774 34.16 79.5774 34.352C79.5774 34.544 79.6681 34.7147 79.8494 34.864C80.0414 35.0027 80.2868 35.136 80.5854 35.264C80.8841 35.3813 81.1988 35.504 81.5294 35.632C81.8601 35.76 82.1748 35.904 82.4734 36.064C82.7721 36.224 83.0121 36.416 83.1934 36.64C83.3854 36.864 83.4814 37.136 83.4814 37.456C83.4814 37.9147 83.3374 38.3893 83.0494 38.88C82.7721 39.3813 82.3561 39.8453 81.8014 40.272C81.2468 40.6987 80.5641 41.04 79.7534 41.296C78.9534 41.5627 78.0254 41.696 76.9694 41.696C76.2014 41.696 75.4974 41.6053 74.8574 41.424C74.2174 41.2533 73.6574 40.992 73.1774 40.64C72.7081 40.2987 72.3401 39.8667 72.0734 39.344C71.8174 38.832 71.6894 38.2347 71.6894 37.552ZM78.4254 45.408C78.1161 45.408 77.8494 45.296 77.6254 45.072C77.4121 44.8587 77.3054 44.6027 77.3054 44.304C77.3054 43.9947 77.4121 43.728 77.6254 43.504C77.8494 43.28 78.1161 43.168 78.4254 43.168C78.7241 43.168 78.9801 43.28 79.1934 43.504C79.4068 43.728 79.5134 43.9947 79.5134 44.304C79.5134 44.6027 79.4068 44.8587 79.1934 45.072C78.9801 45.296 78.7241 45.408 78.4254 45.408ZM75.6574 45.408C75.3481 45.408 75.0814 45.296 74.8574 45.072C74.6441 44.8587 74.5374 44.6027 74.5374 44.304C74.5374 43.9947 74.6441 43.728 74.8574 43.504C75.0814 43.28 75.3481 43.168 75.6574 43.168C75.9561 43.168 76.2121 43.28 76.4254 43.504C76.6388 43.728 76.7454 43.9947 76.7454 44.304C76.7454 44.6027 76.6388 44.8587 76.4254 45.072C76.2121 45.296 75.9561 45.408 75.6574 45.408ZM84.6701 41.696L83.8541 39.712C84.4194 39.52 84.9367 39.296 85.4061 39.04C85.8861 38.784 86.3021 38.5013 86.6541 38.192C87.0061 37.8827 87.2781 37.5467 87.4701 37.184C87.6621 36.8107 87.7581 36.4107 87.7581 35.984C87.7581 35.536 87.6567 35.0453 87.4541 34.512C87.2514 33.9787 87.0061 33.4347 86.7181 32.88L88.8141 31.872C89.0061 32.2027 89.1714 32.56 89.3101 32.944C89.4594 33.3173 89.5821 33.6533 89.6781 33.952C89.7741 34.2507 89.8381 34.4533 89.8701 34.56C90.0194 35.072 90.2221 35.4133 90.4781 35.584C90.7447 35.7547 91.1714 35.84 91.7581 35.84C92.1634 35.84 92.4514 35.9467 92.6221 36.16C92.8034 36.3627 92.8941 36.6187 92.8941 36.928C92.8941 37.2587 92.7821 37.536 92.5581 37.76C92.3341 37.9733 92.0141 38.08 91.5981 38.08C91.1607 38.08 90.7767 38.016 90.4461 37.888C90.1154 37.76 89.8487 37.5733 89.6461 37.328C89.4541 37.0827 89.3314 36.7947 89.2781 36.464L89.8701 36.8C89.8061 37.3653 89.6194 37.8987 89.3101 38.4C89.0114 38.912 88.6221 39.3813 88.1421 39.808C87.6621 40.2347 87.1234 40.608 86.5261 40.928C85.9287 41.248 85.3101 41.504 84.6701 41.696ZM91.6172 38.08L91.7772 35.84C92.1612 35.84 92.4919 35.8027 92.7692 35.728C93.0465 35.6533 93.2812 35.504 93.4732 35.28C93.6652 35.0453 93.8252 34.704 93.9532 34.256C94.0919 33.808 94.2145 33.2107 94.3212 32.464L96.4172 32.816C96.3959 32.976 96.3639 33.1627 96.3212 33.376C96.2892 33.5893 96.2572 33.808 96.2252 34.032C96.2039 34.2453 96.1932 34.448 96.1932 34.64C96.1932 34.832 96.2305 35.0027 96.3052 35.152C96.3799 35.3013 96.4972 35.4293 96.6572 35.536C96.8279 35.632 97.0465 35.7067 97.3132 35.76C97.5905 35.8133 97.9265 35.84 98.3212 35.84C98.7265 35.84 99.0145 35.9467 99.1852 36.16C99.3559 36.3627 99.4412 36.6187 99.4412 36.928C99.4412 37.2587 99.3292 37.536 99.1052 37.76C98.8919 37.9733 98.5772 38.08 98.1612 38.08C97.6812 38.08 97.2439 38.0427 96.8492 37.968C96.4652 37.8933 96.1292 37.7707 95.8412 37.6C95.5639 37.4187 95.3345 37.184 95.1532 36.896C94.9825 36.5973 94.8759 36.2347 94.8332 35.808H95.6012C95.4092 36.32 95.1639 36.7307 94.8652 37.04C94.5772 37.3387 94.2519 37.5627 93.8892 37.712C93.5265 37.8613 93.1479 37.9573 92.7532 38C92.3692 38.0533 91.9905 38.08 91.6172 38.08ZM96.7532 31.024C96.4439 31.024 96.1772 30.9173 95.9532 30.704C95.7399 30.48 95.6332 30.2187 95.6332 29.92C95.6332 29.6107 95.7399 29.344 95.9532 29.12C96.1772 28.896 96.4439 28.784 96.7532 28.784C97.0519 28.784 97.3079 28.896 97.5212 29.12C97.7345 29.344 97.8412 29.6107 97.8412 29.92C97.8412 30.2187 97.7345 30.48 97.5212 30.704C97.3079 30.9173 97.0519 31.024 96.7532 31.024ZM93.9852 31.008C93.6759 31.008 93.4092 30.9013 93.1852 30.688C92.9719 30.464 92.8652 30.2027 92.8652 29.904C92.8652 29.5947 92.9719 29.328 93.1852 29.104C93.4092 28.88 93.6759 28.768 93.9852 28.768C94.2839 28.768 94.5399 28.88 94.7532 29.104C94.9665 29.328 95.0732 29.5947 95.0732 29.904C95.0732 30.2027 94.9665 30.464 94.7532 30.688C94.5399 30.9013 94.2839 31.008 93.9852 31.008ZM98.1641 38.08L98.3241 35.84C98.6761 35.84 98.9641 35.8133 99.1881 35.76C99.4121 35.696 99.5934 35.5627 99.7321 35.36C99.8814 35.1467 100.009 34.832 100.116 34.416C100.233 33.9893 100.361 33.4133 100.5 32.688L102.58 33.072C102.548 33.232 102.511 33.4187 102.468 33.632C102.425 33.8453 102.388 34.064 102.356 34.288C102.324 34.5013 102.308 34.6933 102.308 34.864C102.308 35.1627 102.404 35.4027 102.596 35.584C102.788 35.7547 103.151 35.84 103.684 35.84C103.951 35.84 104.18 35.8133 104.372 35.76C104.575 35.696 104.745 35.5627 104.884 35.36C105.033 35.1467 105.161 34.8213 105.268 34.384C105.385 33.936 105.497 33.3333 105.604 32.576L107.716 32.912C107.673 33.1573 107.631 33.4187 107.588 33.696C107.545 33.9733 107.508 34.2293 107.476 34.464C107.444 34.6987 107.428 34.8907 107.428 35.04C107.428 35.1787 107.465 35.312 107.54 35.44C107.625 35.5573 107.775 35.6533 107.988 35.728C108.212 35.8027 108.527 35.84 108.932 35.84C109.22 35.84 109.465 35.8027 109.668 35.728C109.881 35.6533 110.041 35.5307 110.148 35.36C110.265 35.1893 110.324 34.9653 110.324 34.688C110.324 34.2933 110.233 33.776 110.052 33.136C109.871 32.496 109.657 31.824 109.412 31.12L111.668 30.448C111.839 30.9067 111.988 31.3973 112.116 31.92C112.255 32.432 112.361 32.9333 112.436 33.424C112.521 33.904 112.564 34.3253 112.564 34.688C112.564 35.232 112.479 35.7173 112.308 36.144C112.137 36.56 111.897 36.912 111.588 37.2C111.279 37.488 110.911 37.7067 110.484 37.856C110.057 38.0053 109.588 38.08 109.076 38.08C108.457 38.08 107.951 38.0213 107.556 37.904C107.161 37.776 106.857 37.568 106.644 37.28C106.441 36.9813 106.308 36.576 106.244 36.064H106.788C106.564 36.6933 106.313 37.152 106.036 37.44C105.759 37.7173 105.428 37.8933 105.044 37.968C104.671 38.0427 104.201 38.08 103.636 38.08C103.284 38.08 102.921 38.0427 102.548 37.968C102.185 37.8827 101.86 37.6907 101.572 37.392C101.284 37.0933 101.071 36.6293 100.932 36L101.796 35.968C101.572 36.5973 101.279 37.0613 100.916 37.36C100.564 37.6587 100.159 37.856 99.7001 37.952C99.2414 38.0373 98.7294 38.08 98.1641 38.08ZM106.532 28.176C106.265 28.176 106.031 28.0747 105.828 27.872C105.636 27.6693 105.54 27.4293 105.54 27.152C105.54 26.8747 105.636 26.64 105.828 26.448C106.031 26.256 106.265 26.16 106.532 26.16C106.809 26.16 107.044 26.256 107.236 26.448C107.428 26.64 107.524 26.8747 107.524 27.152C107.524 27.4293 107.428 27.6693 107.236 27.872C107.044 28.0747 106.809 28.176 106.532 28.176ZM105.252 30.288C104.985 30.288 104.751 30.1867 104.548 29.984C104.356 29.7813 104.26 29.5413 104.26 29.264C104.26 28.9867 104.356 28.752 104.548 28.56C104.751 28.368 104.985 28.272 105.252 28.272C105.529 28.272 105.764 28.368 105.956 28.56C106.148 28.752 106.244 28.9867 106.244 29.264C106.244 29.5413 106.148 29.7813 105.956 29.984C105.764 30.1867 105.529 30.288 105.252 30.288ZM107.732 30.288C107.465 30.288 107.231 30.1867 107.028 29.984C106.836 29.7813 106.74 29.5413 106.74 29.264C106.74 28.9867 106.836 28.752 107.028 28.56C107.231 28.368 107.465 28.272 107.732 28.272C108.009 28.272 108.244 28.368 108.436 28.56C108.628 28.752 108.724 28.9867 108.724 29.264C108.724 29.5413 108.628 29.7813 108.436 29.984C108.244 30.1867 108.009 30.288 107.732 30.288ZM114.647 38L114.311 26.288H116.551L116.887 38H114.647Z" fill="white"/>
<path fill-rule="evenodd" clip-rule="evenodd" d="M134.333 22.0238L143.812 20.45V31.4762H134.333V22.0238ZM144.978 20.2738L157.666 18V31.3H144.978V20.2738ZM134.333 32.7H143.812V43.7262L134.333 42.1488V32.7ZM144.978 32.7H157.666V46L145.124 43.8988" fill="white"/>
</svg>
