<svg width="40" height="38" viewBox="0 0 40 40" version="1.1" xmlns="http://www.w3.org/2000/svg" xmlns:xlink="http://www.w3.org/1999/xlink">
    <!-- Generator: Sketch 59 (86127) - https://sketch.com -->
    <title>Shape Copy</title>
    <desc>Created with Sketch.</desc>
    <g id="1.2.0" stroke="none" stroke-width="1" fill="none" fill-rule="evenodd">
        <g id="URL解析中" transform="translate(-880.000000, -505.000000)" fill="#8372FF" fill-rule="nonzero">
            <g id="-mockplus-dup-|D75716E7-856C-41A2-A614-EEF72BB2EF0D|loading" transform="translate(880.000000, 504.000000)">
                <g id="loading" transform="translate(0.000000, 1.000000)">
                    <path d="M34,28.6042217 C34,28.7519789 34.1,28.8504837 34.25,28.8504837 C34.4,28.8504837 34.5,28.7519789 34.5,28.6042217 C34.5,28.4564644 34.4,28.3579596 34.25,28.3579596 C34.1,28.3579596 34,28.4564644 34,28.6042217 Z M28.6,34.0712401 C28.6,34.3175022 28.8,34.5637643 29.1,34.5637643 C29.35,34.5637643 29.6,34.3667546 29.6,34.0712401 C29.6,33.824978 29.4,33.5787159 29.1,33.5787159 C28.85,33.6279683 28.6,33.824978 28.6,34.0712401 Z M21.35,36.9278804 C21.35,37.3218997 21.7,37.6666667 22.1,37.6666667 C22.5,37.6666667 22.85,37.3218997 22.85,36.9278804 C22.85,36.5338611 22.5,36.1890941 22.1,36.1890941 C21.7,36.1890941 21.35,36.5338611 21.35,36.9278804 Z M13.55,36.533861 C13.55,37.0756376 14,37.469657 14.5,37.469657 C15,37.469657 15.45,37.0263852 15.45,36.533861 C15.45,35.9920844 15,35.5980651 14.5,35.5980651 C14,35.5980651 13.55,35.9920844 13.55,36.533861 Z M6.60000001,33.0369393 C6.60000001,33.6772208 7.15000003,34.2189974 7.80000001,34.2189974 C8.44999999,34.2189974 9.00000001,33.6772208 9.00000001,33.0369393 C9.00000001,32.3966579 8.44999999,31.8548813 7.80000001,31.8548813 C7.15000003,31.8056289 6.60000001,32.3474054 6.60000001,33.0369393 Z M1.79999999,27.0281442 C1.79999999,27.8161829 2.44999998,28.4564644 3.24999999,28.4564644 C4.05,28.4564644 4.70000001,27.8161829 4.70000001,27.0281442 C4.70000001,26.2401055 4.05000003,25.5998241 3.24999999,25.5998241 C2.44999998,25.5998241 1.79999999,26.2401055 1.79999999,27.0281442 Z M0,19.7387863 C0,20.6745822 0.749999988,21.4133685 1.69999999,21.4133685 C2.64999999,21.4133685 3.40000001,20.6745822 3.40000001,19.7387863 C3.40000001,18.8029903 2.65000003,18.0642041 1.69999999,18.0642041 C0.749999988,18.0149517 0,18.8029903 0,19.7387863 Z M1.50000001,12.4494283 C1.50000001,13.5329815 2.35000001,14.3702726 3.45,14.3702726 C4.50000001,14.3702726 5.39999998,13.5329815 5.39999998,12.4494283 C5.39999998,11.3658751 4.54999999,10.528584 3.45,10.528584 C2.35000001,10.528584 1.50000001,11.3658751 1.50000001,12.4494283 Z M5.95,6.53913808 C5.95,7.72119613 6.95,8.70624452 8.15000001,8.70624452 C9.35000001,8.70624452 10.35,7.72119616 10.35,6.53913808 C10.35,5.35708004 9.35000001,4.37203168 8.15000001,4.37203168 C6.9,4.37203168 5.95,5.35708004 5.95,6.53913808 Z M12.45,3.1899736 C12.45,4.51978889 13.55,5.60334213 14.9,5.60334213 C16.25,5.60334213 17.35,4.51978893 17.35,3.1899736 C17.35,1.86015827 16.25,0.776605109 14.9,0.776605109 C13.55,0.776605109 12.45,1.86015831 12.45,3.1899736 Z M19.8,2.99296395 C19.8,4.47053652 21,5.65259453 22.45,5.65259453 C23.95,5.65259453 25.1,4.47053649 25.1,2.99296395 C25.1,1.51539138 23.9,0.333333333 22.45,0.333333333 C21,0.333333333 19.8,1.51539138 19.8,2.99296395 Z M26.5,5.94810906 C26.5,7.52418644 27.8,8.80474933 29.4,8.80474933 C31,8.80474933 32.3,7.52418644 32.3,5.94810906 C32.3,4.37203168 31,3.09146879 29.4,3.09146879 C27.85,3.09146879 26.5,4.37203168 26.5,5.94810906 Z M31.3,11.5628848 C31.3,13.2867194 32.7,14.6657872 34.45,14.6657872 C36.2,14.6657872 37.6,13.2867194 37.6,11.5628848 C37.6,9.83905012 36.2,8.45998239 34.45,8.45998239 C32.7,8.45998239 31.3,9.83905012 31.3,11.5628848 L31.3,11.5628848 Z M33.3333333,19.6666667 C33.3333333,21.5294118 34.8039216,23 36.6666666,23 C38.5294117,23 40,21.4803922 40,19.6666667 C40,17.8039216 38.5294117,16.3333333 36.6666666,16.3333333 C34.8039215,16.3333333 33.3333333,17.8529412 33.3333333,19.6666667 L33.3333333,19.6666667 Z" id="Shape-Copy">
                      <animateTransform attributeType="xml" attributeName="transform" type="rotate" from="0 20 20" to="360 20 20" dur="2s" repeatCount="indefinite"></animateTransform>
                    </path>
                </g>
            </g>
        </g>
    </g>
</svg>