<svg width="112" height="45" viewBox="0 0 112 45" fill="none" xmlns="http://www.w3.org/2000/svg">
<path d="M6.40822 21.8376L2.93423 23.5449L2.73315 23.6432L0.00132421 24.9862V27.1718L3.76106 25.3243L4.06004 25.1776L5.73089 24.356L6.23624 24.1083C6.45452 23.1885 6.70984 22.3381 6.99295 21.5506L6.40822 21.8376ZM28.0353 11.3328C27.9228 11.0721 27.8025 10.8166 27.6755 10.5637C27.6596 10.5322 27.6437 10.4982 27.6252 10.4667C26.2348 7.76356 24.0123 5.54783 21.2884 4.14973C21.2355 4.12222 19.3675 3.27051 16.8778 2.80142C16.1462 2.66384 15.3631 2.55902 14.5548 2.51709H4.44104C1.98967 2.51709 0.00132421 4.48124 0.00132421 6.904V22.228L1.7952 21.3475L1.87325 21.3095L8.22194 18.1897L8.70348 17.9525C11.3374 13.6639 14.5971 12.5462 14.5971 12.5462V15.0502C15.6766 15.1 16.6198 15.5324 17.2244 16.1666C17.4811 16.4326 17.6993 16.8139 17.8594 17.2017C17.8898 17.2777 17.9189 17.3524 17.9441 17.4284C17.9957 17.5712 18.0367 17.7101 18.0684 17.8424C18.1134 18.0259 18.1888 18.1766 18.2814 18.3102C18.2801 18.3115 18.2814 18.3142 18.2841 18.3155C18.3753 18.4452 18.4825 18.5553 18.5949 18.6601C18.9865 19.027 19.4337 19.3179 19.4337 20.0254C19.4337 20.3451 19.2948 20.6216 19.0566 20.864C18.923 21.0016 18.759 21.1261 18.5711 21.244C18.5301 21.2689 18.4865 21.2938 18.4428 21.3174C18.4415 21.3187 18.4388 21.32 18.4375 21.3213C18.3542 21.3672 18.2655 21.413 18.1756 21.4563C18.1571 21.4654 18.1372 21.4733 18.1174 21.4825C18.1134 21.4838 18.1081 21.4851 18.1041 21.4877C17.5419 21.7419 16.3473 22.1298 16.1237 22.1992C16.0708 22.2136 16.01 22.2307 15.9451 22.249C15.7427 22.3067 15.5046 22.3748 15.3631 22.4167C15.3472 22.4194 15.3326 22.4246 15.3181 22.4298C15.2718 22.4442 15.244 22.4534 15.2414 22.4547C15.1315 22.4875 15.0244 22.5268 14.9225 22.574C14.8961 22.5858 14.8696 22.5989 14.8432 22.612C14.5627 22.7469 14.3087 22.9264 14.0891 23.144C13.5771 23.6484 13.2623 24.3429 13.2623 25.112C13.2623 25.4946 13.343 25.8615 13.4832 26.1957C13.5573 26.3608 13.6446 26.5193 13.7425 26.6713C13.8668 26.8757 14.011 27.0814 14.1698 27.2898C14.1883 27.3173 14.2095 27.3435 14.2293 27.3697C14.7704 28.0707 15.4689 28.794 16.1766 29.5396C16.4187 29.7938 16.6622 30.0493 16.899 30.3087C17.1093 30.538 17.3183 30.7699 17.5194 31.0045C17.5789 31.0726 17.6385 31.1421 17.6954 31.2115C18.0711 31.1316 18.9468 30.8826 19.0275 30.8577C21.0304 30.2235 22.8481 29.1727 24.3735 27.8087C24.3959 27.7903 24.4171 27.772 24.4396 27.7523C27.1807 25.2719 28.968 21.7773 29.1915 17.8713C29.2048 17.6459 29.2114 17.4218 29.214 17.1938C29.2153 17.1427 29.2153 17.0903 29.2153 17.0379C29.2114 15.0122 28.7933 13.0834 28.0353 11.3328ZM5.44778 27.2531L5.43588 27.2583L0.00132421 29.9274V32.113L5.42662 29.4478C5.44381 29.1963 5.46498 28.9447 5.49011 28.6879C5.49276 28.6433 5.49805 28.5975 5.50202 28.5529L5.50731 28.4979C5.54038 28.1519 5.58139 27.8008 5.62902 27.4431C5.64225 27.3448 5.65548 27.2439 5.67003 27.1443L5.44778 27.2531ZM7.03925 40.8646C6.98237 40.7322 6.92019 40.5815 6.85404 40.4099C6.34472 39.093 5.5933 36.6362 5.40148 33.2307C5.38296 32.9084 5.36972 32.5795 5.36179 32.2414L0.353217 34.6982L0 34.8725V37.1289C0 37.7041 0.111127 38.2518 0.31618 38.755C0.968378 40.3732 2.56911 41.5171 4.43972 41.5171H7.33823V41.504C7.31177 41.4529 7.19933 41.238 7.03925 40.8646Z" fill="black"/>
<path d="M56.0306 18.8C57.0696 18.8 57.9118 17.9658 57.9118 16.9367C57.9118 15.9077 57.0696 15.0735 56.0306 15.0735C54.9916 15.0735 54.1494 15.9077 54.1494 16.9367C54.1494 17.9658 54.9916 18.8 56.0306 18.8Z" fill="black"/>
<path d="M52.4614 16.9375V31.212H48.9834V25.3353H43.5727V31.212H40.0947V16.9375H43.5727V22.5286H48.9834V16.9375H52.4614Z" fill="black"/>
<path d="M57.7702 19.9688H54.1494V31.2112H57.7702V19.9688Z" fill="black"/>
<path d="M66.6199 28.2297V31.212H64.8499C63.5891 31.212 62.6049 30.9001 61.9011 30.2764C61.196 29.6527 60.8428 28.6346 60.8428 27.2221V22.6557H59.459V19.9696H60.8428V16.9375H64.3207V19.9696H66.5988V22.6557H64.3207V27.2627C64.3207 27.606 64.4014 27.8524 64.5641 28.003C64.7268 28.1537 64.998 28.2297 65.3777 28.2297H66.6199Z" fill="black"/>
<path d="M78.5993 23.8012C78.2196 24.4865 77.6362 25.0381 76.8504 25.4587C76.0632 25.8793 75.0869 26.089 73.9214 26.089H71.7651V31.2136L68.2871 31.2096V16.9338L73.9214 16.9378C75.0604 16.9378 76.0235 17.1343 76.8094 17.5274C77.5952 17.9205 78.1852 18.687 78.5794 19.3789C78.9723 20.0707 79.1694 20.6381 79.1694 21.533C79.1681 22.3611 78.9789 23.1172 78.5993 23.8012ZM75.1411 22.8551C75.4666 22.5433 75.6293 22.103 75.6293 21.533C75.6293 20.963 75.4666 20.5228 75.1411 20.2109C74.8157 19.8991 74.3209 19.9685 73.6555 19.9685H71.7637V23.3229H73.6555C74.3209 23.3229 74.8157 23.167 75.1411 22.8551Z" fill="black"/>
<path d="M81.5183 22.5799C81.9588 21.7282 82.5581 21.073 83.3187 20.6144C84.0781 20.1558 84.9261 19.9265 85.8614 19.9265C86.6618 19.9265 87.3629 20.0837 87.9662 20.3982C88.5694 20.7127 89.0338 21.1254 89.3592 21.6365V19.9684H92.8371V31.0536H89.3592V29.5009C89.0205 30.012 88.5482 30.4247 87.945 30.7392C87.3417 31.0536 86.6393 31.2109 85.8402 31.2109C84.9182 31.2109 84.0768 30.979 83.3174 30.5125C82.5581 30.0473 81.9575 29.3856 81.5169 28.5274C81.0764 27.6691 80.8555 26.6759 80.8555 25.549C80.8568 24.4222 81.0777 23.4329 81.5183 22.5799ZM88.6382 23.5823C88.1567 23.0975 87.5706 22.855 86.8787 22.855C86.1868 22.855 85.6008 23.0948 85.1192 23.5731C84.6377 24.0514 84.3969 24.7104 84.3969 25.549C84.3969 26.3876 84.6377 27.0533 85.1192 27.5446C85.6008 28.036 86.1868 28.2823 86.8787 28.2823C87.5706 28.2823 88.1567 28.0399 88.6382 27.5551C89.1197 27.0703 89.3605 26.4086 89.3605 25.57C89.3605 24.7301 89.1184 24.0684 88.6382 23.5823Z" fill="black"/>
<path d="M112 19.9688L108.929 31.2112H105.084L103.294 23.918L101.444 31.2112H97.619L94.5273 19.9688H98.0053L99.6127 28.0075L101.524 19.9688H105.206L107.139 27.9669L108.725 19.9688H112Z" fill="black"/>
</svg>
