<svg width="275" height="111" viewBox="0 0 275 111" fill="none" xmlns="http://www.w3.org/2000/svg">
<rect width="275" height="72" rx="36" fill="#6B57FF"/>
<path d="M115.34 31.1C114.1 31.1 113.14 30.9733 112.46 30.72C111.793 30.4667 111.327 30.0733 111.06 29.54C110.793 28.9933 110.64 28.3067 110.6 27.48L110.18 16.36H112.98L113.4 26.14C113.427 26.7533 113.493 27.2133 113.6 27.52C113.707 27.8267 113.907 28.0333 114.2 28.14C114.507 28.2467 114.953 28.3 115.54 28.3C116.047 28.3 116.407 28.4333 116.62 28.7C116.847 28.9533 116.96 29.2733 116.96 29.66C116.96 30.0733 116.82 30.42 116.54 30.7C116.26 30.9667 115.86 31.1 115.34 31.1ZM115.367 31.1L115.567 28.3C116.154 28.3 116.614 28.26 116.947 28.18C117.294 28.1 117.541 27.9533 117.687 27.74C117.834 27.5133 117.907 27.1933 117.907 26.78C117.907 26.4067 117.854 25.96 117.747 25.44C117.654 24.92 117.527 24.38 117.367 23.82C117.207 23.26 117.047 22.7467 116.887 22.28L119.647 21.52C119.807 21.9733 119.967 22.5 120.127 23.1C120.287 23.7 120.421 24.32 120.527 24.96C120.647 25.5867 120.707 26.1933 120.707 26.78C120.707 27.5133 120.614 28.1333 120.427 28.64C120.241 29.1333 119.981 29.5467 119.647 29.88C119.327 30.2 118.941 30.4533 118.487 30.64C118.047 30.8133 117.561 30.9333 117.027 31C116.494 31.0667 115.941 31.1 115.367 31.1ZM118.247 19.86C117.834 19.86 117.481 19.72 117.187 19.44C116.907 19.16 116.767 18.8133 116.767 18.4C116.767 17.9867 116.907 17.6333 117.187 17.34C117.481 17.0467 117.834 16.9 118.247 16.9C118.647 16.9 118.987 17.0467 119.267 17.34C119.561 17.6333 119.707 17.9867 119.707 18.4C119.707 18.8133 119.561 19.16 119.267 19.44C118.987 19.72 118.647 19.86 118.247 19.86ZM128.055 31.1C126.815 31.1 125.855 30.9733 125.175 30.72C124.508 30.4667 124.042 30.0733 123.775 29.54C123.508 28.9933 123.355 28.3067 123.315 27.48L122.895 16.36H125.695L126.115 26.14C126.142 26.7533 126.208 27.2133 126.315 27.52C126.422 27.8267 126.622 28.0333 126.915 28.14C127.222 28.2467 127.668 28.3 128.255 28.3C128.762 28.3 129.122 28.4333 129.335 28.7C129.562 28.9533 129.675 29.2733 129.675 29.66C129.675 30.0733 129.535 30.42 129.255 30.7C128.975 30.9667 128.575 31.1 128.055 31.1ZM141.162 31.1C140.549 31.1 139.975 31.0533 139.442 30.96C138.922 30.8667 138.442 30.7067 138.002 30.48C137.562 30.24 137.169 29.9133 136.822 29.5C136.489 29.0867 136.209 28.5667 135.982 27.94L137.562 26.68C137.802 27.1067 138.095 27.44 138.442 27.68C138.789 27.9067 139.202 28.0667 139.682 28.16C140.162 28.2533 140.722 28.3 141.362 28.3C141.869 28.3 142.229 28.4333 142.442 28.7C142.655 28.9533 142.762 29.2733 142.762 29.66C142.762 30.0733 142.622 30.42 142.342 30.7C142.075 30.9667 141.682 31.1 141.162 31.1ZM128.082 31.1L128.282 28.3C129.002 28.3 129.715 28.26 130.422 28.18C131.129 28.1 131.815 27.98 132.482 27.82C133.149 27.66 133.782 27.4533 134.382 27.2C134.995 26.9467 135.569 26.64 136.102 26.28C135.702 26.04 135.269 25.8333 134.802 25.66C134.335 25.4867 133.835 25.36 133.302 25.28C132.782 25.1867 132.229 25.14 131.642 25.14C131.429 25.14 131.202 25.1467 130.962 25.16C130.735 25.1733 130.502 25.2 130.262 25.24C130.022 25.2667 129.782 25.3067 129.542 25.36L129.142 22.62C129.529 22.5133 129.935 22.44 130.362 22.4C130.802 22.3467 131.189 22.32 131.522 22.32C132.242 22.32 132.902 22.4 133.502 22.56C134.115 22.72 134.675 22.92 135.182 23.16C135.702 23.4 136.182 23.64 136.622 23.88C137.075 24.12 137.502 24.32 137.902 24.48C138.315 24.64 138.715 24.72 139.102 24.72H139.842L140.162 27.38C139.589 27.4067 139.049 27.52 138.542 27.72C138.049 27.9067 137.555 28.1467 137.062 28.44C136.582 28.72 136.062 29.0133 135.502 29.32C134.955 29.6267 134.335 29.9133 133.642 30.18C132.949 30.4467 132.149 30.6667 131.242 30.84C130.335 31.0133 129.282 31.1 128.082 31.1ZM133.742 35.6C133.355 35.6 133.022 35.4667 132.742 35.2C132.475 34.9333 132.342 34.6067 132.342 34.22C132.342 33.8333 132.475 33.4933 132.742 33.2C133.022 32.92 133.355 32.78 133.742 32.78C134.129 32.78 134.455 32.92 134.722 33.2C135.002 33.4933 135.142 33.8333 135.142 34.22C135.142 34.6067 135.002 34.9333 134.722 35.2C134.455 35.4667 134.129 35.6 133.742 35.6ZM141.168 31.1L141.368 28.3C141.675 28.3 141.935 28.2267 142.148 28.08C142.375 27.92 142.608 27.66 142.848 27.3C143.088 26.9267 143.368 26.4267 143.688 25.8C144.088 25 144.501 24.3733 144.928 23.92C145.368 23.4667 145.815 23.1467 146.268 22.96C146.735 22.76 147.201 22.66 147.668 22.66C148.255 22.66 148.801 22.7867 149.308 23.04C149.815 23.2933 150.255 23.64 150.628 24.08C151.001 24.5067 151.288 25 151.488 25.56C151.701 26.1067 151.808 26.6733 151.808 27.26C151.808 27.9667 151.655 28.6067 151.348 29.18C151.055 29.74 150.641 30.1867 150.108 30.52C149.588 30.84 148.988 31 148.308 31C147.735 31 147.068 30.9 146.308 30.7C145.548 30.5 144.748 30.08 143.908 29.44L144.928 27.02C145.528 27.4333 146.088 27.7333 146.608 27.92C147.141 28.1067 147.581 28.2 147.928 28.2C148.195 28.2 148.415 28.1733 148.588 28.12C148.761 28.0667 148.888 27.98 148.968 27.86C149.048 27.74 149.088 27.58 149.088 27.38C149.088 27.1 149.021 26.8133 148.888 26.52C148.755 26.2267 148.575 25.98 148.348 25.78C148.135 25.5667 147.881 25.46 147.588 25.46C147.308 25.46 147.068 25.5667 146.868 25.78C146.681 25.98 146.495 26.2733 146.308 26.66C146.135 27.0333 145.921 27.4733 145.668 27.98C145.361 28.5933 145.061 29.1067 144.768 29.52C144.475 29.92 144.161 30.24 143.828 30.48C143.508 30.7067 143.128 30.8667 142.688 30.96C142.261 31.0533 141.755 31.1 141.168 31.1ZM157.567 30.44C157.567 30.1333 157.594 29.7733 157.647 29.36C157.7 28.9467 157.8 28.48 157.947 27.96C158.094 27.4267 158.314 26.8333 158.607 26.18L161.067 27.04C160.92 27.4533 160.794 27.8333 160.687 28.18C160.58 28.5133 160.5 28.8267 160.447 29.12C160.394 29.4 160.367 29.68 160.367 29.96C160.367 30.56 160.514 31.08 160.807 31.52C161.114 31.9733 161.527 32.32 162.047 32.56C162.58 32.8133 163.194 32.94 163.887 32.94C165.02 32.94 165.887 32.7533 166.487 32.38C167.1 32.02 167.514 31.4467 167.727 30.66C167.954 29.86 168.04 28.8267 167.987 27.56L167.587 16.36H170.407L170.707 25.82C170.734 26.4867 170.827 27 170.987 27.36C171.147 27.72 171.394 27.9667 171.727 28.1C172.074 28.2333 172.52 28.3 173.067 28.3C173.574 28.3 173.934 28.4333 174.147 28.7C174.36 28.9533 174.467 29.2733 174.467 29.66C174.467 30.0733 174.327 30.42 174.047 30.7C173.767 30.9667 173.374 31.1 172.867 31.1C172.574 31.1 172.26 31.06 171.927 30.98C171.594 30.9 171.274 30.7733 170.967 30.6C170.66 30.4267 170.394 30.2 170.167 29.92C169.94 29.6267 169.787 29.2667 169.707 28.84L170.787 28.3C170.787 29.6467 170.627 30.7867 170.307 31.72C170 32.6533 169.547 33.4067 168.947 33.98C168.36 34.5533 167.634 34.9667 166.767 35.22C165.914 35.4867 164.927 35.62 163.807 35.62C162.954 35.62 162.147 35.5133 161.387 35.3C160.64 35.0867 159.98 34.7667 159.407 34.34C158.834 33.9133 158.38 33.3733 158.047 32.72C157.727 32.08 157.567 31.32 157.567 30.44ZM172.867 31.1L173.067 28.3C173.867 28.3 174.481 28.26 174.907 28.18C175.334 28.1 175.627 27.9533 175.787 27.74C175.961 27.5133 176.047 27.1933 176.047 26.78C176.047 26.4067 175.994 25.96 175.887 25.44C175.794 24.92 175.667 24.38 175.507 23.82C175.361 23.26 175.201 22.7467 175.027 22.28L177.787 21.52C177.961 21.9733 178.127 22.5 178.287 23.1C178.447 23.7 178.581 24.32 178.687 24.96C178.794 25.5867 178.847 26.1933 178.847 26.78C178.847 27.6867 178.701 28.4267 178.407 29C178.114 29.56 177.701 29.9933 177.167 30.3C176.647 30.6067 176.021 30.82 175.287 30.94C174.554 31.0467 173.747 31.1 172.867 31.1ZM177.807 35.74C177.421 35.74 177.087 35.6 176.807 35.32C176.541 35.0533 176.407 34.7333 176.407 34.36C176.407 33.9733 176.541 33.64 176.807 33.36C177.087 33.08 177.421 32.94 177.807 32.94C178.181 32.94 178.501 33.08 178.767 33.36C179.034 33.64 179.167 33.9733 179.167 34.36C179.167 34.7333 179.034 35.0533 178.767 35.32C178.501 35.6 178.181 35.74 177.807 35.74ZM174.347 35.74C173.961 35.74 173.627 35.6 173.347 35.32C173.081 35.0533 172.947 34.7333 172.947 34.36C172.947 33.9733 173.081 33.64 173.347 33.36C173.627 33.08 173.961 32.94 174.347 32.94C174.721 32.94 175.041 33.08 175.307 33.36C175.574 33.64 175.707 33.9733 175.707 34.36C175.707 34.7333 175.574 35.0533 175.307 35.32C175.041 35.6 174.721 35.74 174.347 35.74ZM180.375 35.62L179.355 33.14C180.061 32.9 180.708 32.62 181.295 32.3C181.895 31.98 182.415 31.6267 182.855 31.24C183.295 30.8533 183.635 30.4333 183.875 29.98C184.115 29.5133 184.235 29.0133 184.235 28.48C184.235 27.92 184.108 27.3067 183.855 26.64C183.601 25.9733 183.295 25.2933 182.935 24.6L185.555 23.34C185.795 23.7533 186.001 24.2 186.175 24.68C186.361 25.1467 186.515 25.5667 186.635 25.94C186.755 26.3133 186.835 26.5667 186.875 26.7C187.061 27.34 187.315 27.7667 187.635 27.98C187.968 28.1933 188.501 28.3 189.235 28.3C189.741 28.3 190.101 28.4333 190.315 28.7C190.541 28.9533 190.655 29.2733 190.655 29.66C190.655 30.0733 190.515 30.42 190.235 30.7C189.955 30.9667 189.555 31.1 189.035 31.1C188.488 31.1 188.008 31.02 187.595 30.86C187.181 30.7 186.848 30.4667 186.595 30.16C186.355 29.8533 186.201 29.4933 186.135 29.08L186.875 29.5C186.795 30.2067 186.561 30.8733 186.175 31.5C185.801 32.14 185.315 32.7267 184.715 33.26C184.115 33.7933 183.441 34.26 182.695 34.66C181.948 35.06 181.175 35.38 180.375 35.62ZM184.455 21.3C184.041 21.3 183.688 21.16 183.395 20.88C183.115 20.6 182.975 20.2533 182.975 19.84C182.975 19.4267 183.115 19.0733 183.395 18.78C183.688 18.4867 184.041 18.34 184.455 18.34C184.855 18.34 185.195 18.4867 185.475 18.78C185.768 19.0733 185.915 19.4267 185.915 19.84C185.915 20.2533 185.768 20.6 185.475 20.88C185.195 21.16 184.855 21.3 184.455 21.3ZM189.059 31.1L189.259 28.3C189.765 28.3 190.165 28.2533 190.459 28.16C190.765 28.0667 191.005 27.88 191.179 27.6C191.365 27.3067 191.519 26.88 191.639 26.32C191.772 25.76 191.905 25.0133 192.039 24.08L194.659 24.52C194.632 24.72 194.592 24.9533 194.539 25.22C194.499 25.4867 194.459 25.76 194.419 26.04C194.392 26.3067 194.379 26.56 194.379 26.8C194.379 27.12 194.445 27.3933 194.579 27.62C194.725 27.8333 194.979 28 195.339 28.12C195.712 28.24 196.245 28.3 196.939 28.3C197.445 28.3 197.805 28.4333 198.019 28.7C198.232 28.9533 198.339 29.2733 198.339 29.66C198.339 30.0733 198.199 30.42 197.919 30.7C197.652 30.9667 197.259 31.1 196.739 31.1C195.819 31.1 195.072 31.0133 194.499 30.84C193.925 30.6667 193.499 30.3733 193.219 29.96C192.939 29.5467 192.759 28.98 192.679 28.26H193.639C193.399 28.9 193.119 29.4133 192.799 29.8C192.479 30.1733 192.119 30.4533 191.719 30.64C191.319 30.8267 190.892 30.9467 190.439 31C189.999 31.0667 189.539 31.1 189.059 31.1ZM193.139 22.04C192.725 22.04 192.372 21.9 192.079 21.62C191.799 21.34 191.659 20.9933 191.659 20.58C191.659 20.1667 191.799 19.8133 192.079 19.52C192.372 19.2267 192.725 19.08 193.139 19.08C193.539 19.08 193.879 19.2267 194.159 19.52C194.452 19.8133 194.599 20.1667 194.599 20.58C194.599 20.9933 194.452 21.34 194.159 21.62C193.879 21.9 193.539 22.04 193.139 22.04ZM196.734 31.1L196.934 28.3C197.734 28.3 198.348 28.26 198.774 28.18C199.201 28.1 199.494 27.9533 199.654 27.74C199.828 27.5133 199.914 27.1933 199.914 26.78C199.914 26.4067 199.861 25.96 199.754 25.44C199.661 24.92 199.534 24.38 199.374 23.82C199.228 23.26 199.068 22.7467 198.894 22.28L201.654 21.52C201.828 21.9733 201.994 22.5 202.154 23.1C202.314 23.7 202.448 24.32 202.554 24.96C202.661 25.5867 202.714 26.1933 202.714 26.78C202.714 27.6867 202.568 28.4267 202.274 29C201.981 29.56 201.568 29.9933 201.034 30.3C200.514 30.6067 199.888 30.82 199.154 30.94C198.421 31.0467 197.614 31.1 196.734 31.1ZM202.154 19.9C201.768 19.9 201.434 19.7667 201.154 19.5C200.888 19.22 200.754 18.8933 200.754 18.52C200.754 18.1333 200.888 17.8 201.154 17.52C201.434 17.24 201.768 17.1 202.154 17.1C202.528 17.1 202.848 17.24 203.114 17.52C203.381 17.8 203.514 18.1333 203.514 18.52C203.514 18.8933 203.381 19.22 203.114 19.5C202.848 19.7667 202.528 19.9 202.154 19.9ZM198.694 19.88C198.308 19.88 197.974 19.7467 197.694 19.48C197.428 19.2 197.294 18.8733 197.294 18.5C197.294 18.1133 197.428 17.78 197.694 17.5C197.974 17.22 198.308 17.08 198.694 17.08C199.068 17.08 199.388 17.22 199.654 17.5C199.921 17.78 200.054 18.1133 200.054 18.5C200.054 18.8733 199.921 19.2 199.654 19.48C199.388 19.7467 199.068 19.88 198.694 19.88Z" fill="white"/>
<path d="M36.68 55.252L36.992 54.268C37.928 54.268 38.732 54.244 39.404 54.196C40.084 54.148 40.64 54.072 41.072 53.968C41.512 53.856 41.836 53.708 42.044 53.524C42.26 53.332 42.368 53.1 42.368 52.828C42.368 52.524 42.312 52.172 42.2 51.772C42.088 51.372 41.944 50.944 41.768 50.488L42.692 50.164C42.796 50.42 42.892 50.696 42.98 50.992C43.076 51.28 43.156 51.568 43.22 51.856C43.284 52.136 43.316 52.396 43.316 52.636C43.316 53.108 43.208 53.512 42.992 53.848C42.776 54.176 42.416 54.444 41.912 54.652C41.408 54.86 40.728 55.012 39.872 55.108C39.024 55.204 37.96 55.252 36.68 55.252ZM36.68 55.252C35.968 55.252 35.34 55.204 34.796 55.108C34.26 55.02 33.812 54.88 33.452 54.688C33.092 54.496 32.82 54.248 32.636 53.944C32.452 53.632 32.36 53.256 32.36 52.816C32.36 52.616 32.376 52.412 32.408 52.204C32.44 51.988 32.48 51.772 32.528 51.556C32.584 51.34 32.64 51.132 32.696 50.932L33.596 51.16C33.564 51.28 33.528 51.424 33.488 51.592C33.448 51.752 33.412 51.916 33.38 52.084C33.356 52.252 33.344 52.404 33.344 52.54C33.344 52.956 33.448 53.292 33.656 53.548C33.872 53.796 34.244 53.98 34.772 54.1C35.3 54.212 36.04 54.268 36.992 54.268L37.232 54.868L36.68 55.252ZM37.868 48.868C37.7 48.868 37.556 48.812 37.436 48.7C37.324 48.58 37.268 48.44 37.268 48.28C37.268 48.12 37.324 47.98 37.436 47.86C37.556 47.74 37.7 47.68 37.868 47.68C38.028 47.68 38.164 47.74 38.276 47.86C38.396 47.98 38.456 48.12 38.456 48.28C38.456 48.44 38.396 48.58 38.276 48.7C38.164 48.812 38.028 48.868 37.868 48.868ZM37.052 50.188C36.884 50.188 36.74 50.132 36.62 50.02C36.508 49.9 36.452 49.76 36.452 49.6C36.452 49.44 36.508 49.3 36.62 49.18C36.74 49.06 36.884 49 37.052 49C37.212 49 37.348 49.06 37.46 49.18C37.58 49.3 37.64 49.44 37.64 49.6C37.64 49.76 37.58 49.9 37.46 50.02C37.348 50.132 37.212 50.188 37.052 50.188ZM38.684 50.188C38.516 50.188 38.372 50.132 38.252 50.02C38.14 49.9 38.084 49.76 38.084 49.6C38.084 49.44 38.14 49.3 38.252 49.18C38.372 49.06 38.516 49 38.684 49C38.844 49 38.98 49.06 39.092 49.18C39.212 49.3 39.272 49.44 39.272 49.6C39.272 49.76 39.212 49.9 39.092 50.02C38.98 50.132 38.844 50.188 38.684 50.188ZM46.498 54.076C46.898 54.076 47.214 54.036 47.446 53.956C47.686 53.876 47.858 53.76 47.962 53.608C48.074 53.448 48.13 53.264 48.13 53.056C48.13 52.896 48.086 52.704 47.998 52.48C47.918 52.256 47.806 52.008 47.662 51.736C47.518 51.456 47.35 51.164 47.158 50.86C46.974 50.548 46.774 50.232 46.558 49.912L47.386 49.372C47.698 49.844 47.97 50.292 48.202 50.716C48.434 51.132 48.63 51.524 48.79 51.892C48.95 52.252 49.078 52.592 49.174 52.912C49.286 53.264 49.41 53.524 49.546 53.692C49.69 53.86 49.838 53.968 49.99 54.016C50.142 54.056 50.282 54.076 50.41 54.076C50.578 54.076 50.702 54.124 50.782 54.22C50.862 54.308 50.902 54.416 50.902 54.544C50.902 54.672 50.846 54.792 50.734 54.904C50.622 55.008 50.478 55.06 50.302 55.06C50.038 55.06 49.778 55.012 49.522 54.916C49.274 54.812 49.058 54.648 48.874 54.424C48.69 54.192 48.562 53.884 48.49 53.5L48.97 53.116C48.97 53.436 48.902 53.748 48.766 54.052C48.63 54.348 48.382 54.592 48.022 54.784C47.67 54.976 47.162 55.072 46.498 55.072C46.21 55.072 45.93 55.048 45.658 55C45.394 54.952 45.15 54.884 44.926 54.796C44.702 54.7 44.506 54.588 44.338 54.46L44.818 53.632C44.978 53.736 45.202 53.836 45.49 53.932C45.778 54.028 46.114 54.076 46.498 54.076ZM50.3047 55.06L50.4127 54.076C50.8287 54.076 51.2367 54.044 51.6367 53.98C52.0367 53.916 52.4287 53.824 52.8127 53.704C53.1967 53.584 53.5647 53.44 53.9167 53.272C54.2767 53.096 54.6167 52.896 54.9367 52.672C54.7287 52.488 54.4887 52.328 54.2167 52.192C53.9447 52.056 53.6447 51.952 53.3167 51.88C52.9967 51.8 52.6567 51.76 52.2967 51.76C52.1687 51.76 52.0487 51.764 51.9367 51.772C51.8247 51.78 51.7127 51.796 51.6007 51.82C51.4887 51.836 51.3607 51.86 51.2167 51.892L51.0247 50.98C51.2407 50.916 51.4567 50.868 51.6727 50.836C51.8887 50.796 52.0967 50.776 52.2967 50.776C52.7127 50.776 53.0887 50.828 53.4247 50.932C53.7607 51.028 54.0647 51.148 54.3367 51.292C54.6167 51.436 54.8767 51.58 55.1167 51.724C55.3647 51.868 55.6047 51.992 55.8367 52.096C56.0687 52.192 56.3087 52.24 56.5567 52.24H56.8087L56.8927 53.104C56.5487 53.104 56.2327 53.152 55.9447 53.248C55.6567 53.344 55.3727 53.468 55.0927 53.62C54.8207 53.764 54.5327 53.92 54.2287 54.088C53.9247 54.248 53.5887 54.404 53.2207 54.556C52.8527 54.7 52.4287 54.82 51.9487 54.916C51.4767 55.012 50.9287 55.06 50.3047 55.06ZM58.4391 55L58.2351 47.272H59.2071L59.4111 55H58.4391ZM57.6471 46.552L57.5031 45.904C57.7111 45.856 57.8791 45.816 58.0071 45.784C58.1351 45.752 58.2791 45.716 58.4391 45.676L58.3791 45.928C58.1711 45.864 57.9711 45.728 57.7791 45.52C57.5951 45.312 57.5031 45.076 57.5031 44.812C57.5031 44.572 57.5591 44.372 57.6711 44.212C57.7911 44.044 57.9431 43.92 58.1271 43.84C58.3191 43.76 58.5231 43.72 58.7391 43.72C58.8271 43.72 58.9191 43.728 59.0151 43.744C59.1191 43.76 59.2151 43.784 59.3031 43.816L59.2071 44.416C59.1271 44.4 59.0511 44.384 58.9791 44.368C58.9071 44.352 58.8271 44.344 58.7391 44.344C58.5551 44.344 58.4111 44.384 58.3071 44.464C58.2031 44.536 58.1511 44.64 58.1511 44.776C58.1511 44.944 58.2031 45.088 58.3071 45.208C58.4191 45.328 58.5431 45.424 58.6791 45.496C58.8231 45.56 58.9391 45.592 59.0271 45.592L58.5351 45.64C58.7511 45.584 58.9511 45.528 59.1351 45.472C59.3271 45.408 59.4991 45.348 59.6511 45.292L59.8431 45.904C59.6511 45.976 59.4231 46.052 59.1591 46.132C58.9031 46.212 58.6431 46.288 58.3791 46.36C58.1151 46.432 57.8711 46.496 57.6471 46.552ZM64.0905 57.76L63.8745 56.776C64.3545 56.712 64.7945 56.62 65.1945 56.5C65.6025 56.388 65.9505 56.224 66.2385 56.008C66.5345 55.792 66.7625 55.508 66.9225 55.156C67.0825 54.804 67.1625 54.364 67.1625 53.836C67.1625 53.588 67.1385 53.352 67.0905 53.128C67.0425 52.896 66.9705 52.692 66.8745 52.516C66.7785 52.34 66.6625 52.2 66.5265 52.096C66.3985 51.992 66.2505 51.94 66.0825 51.94C65.8985 51.94 65.7305 52.012 65.5785 52.156C65.4345 52.292 65.3185 52.468 65.2305 52.684C65.1505 52.9 65.1105 53.116 65.1105 53.332C65.1105 53.5 65.1425 53.648 65.2065 53.776C65.2785 53.896 65.3945 53.988 65.5545 54.052C65.7145 54.116 65.9225 54.148 66.1785 54.148C66.4105 54.148 66.6425 54.124 66.8745 54.076C67.1145 54.028 67.3185 53.964 67.4865 53.884L67.5345 54.724C67.3425 54.86 67.1145 54.956 66.8505 55.012C66.5945 55.068 66.3345 55.096 66.0705 55.096C65.7665 55.096 65.4945 55.064 65.2545 55C65.0225 54.936 64.8225 54.844 64.6545 54.724C64.4945 54.596 64.3705 54.436 64.2825 54.244C64.2025 54.052 64.1625 53.828 64.1625 53.572C64.1625 53.268 64.2105 52.964 64.3065 52.66C64.4025 52.348 64.5385 52.064 64.7145 51.808C64.8905 51.552 65.1025 51.348 65.3505 51.196C65.5985 51.036 65.8745 50.956 66.1785 50.956C66.4985 50.956 66.7785 51.04 67.0185 51.208C67.2585 51.368 67.4585 51.588 67.6185 51.868C67.7785 52.148 67.8985 52.464 67.9785 52.816C68.0585 53.168 68.0985 53.532 68.0985 53.908C68.0985 54.652 67.9465 55.292 67.6425 55.828C67.3465 56.372 66.8985 56.804 66.2985 57.124C65.7065 57.444 64.9705 57.656 64.0905 57.76ZM69.8297 55L69.6257 47.272H70.5977L70.8017 55H69.8297ZM69.0377 46.552L68.8937 45.904C69.1017 45.856 69.2697 45.816 69.3977 45.784C69.5257 45.752 69.6697 45.716 69.8297 45.676L69.7697 45.928C69.5617 45.864 69.3617 45.728 69.1697 45.52C68.9857 45.312 68.8937 45.076 68.8937 44.812C68.8937 44.572 68.9497 44.372 69.0617 44.212C69.1817 44.044 69.3337 43.92 69.5177 43.84C69.7097 43.76 69.9137 43.72 70.1297 43.72C70.2177 43.72 70.3097 43.728 70.4057 43.744C70.5097 43.76 70.6057 43.784 70.6937 43.816L70.5977 44.416C70.5177 44.4 70.4417 44.384 70.3697 44.368C70.2977 44.352 70.2177 44.344 70.1297 44.344C69.9457 44.344 69.8017 44.384 69.6977 44.464C69.5937 44.536 69.5417 44.64 69.5417 44.776C69.5417 44.944 69.5937 45.088 69.6977 45.208C69.8097 45.328 69.9337 45.424 70.0697 45.496C70.2137 45.56 70.3297 45.592 70.4177 45.592L69.9257 45.64C70.1417 45.584 70.3417 45.528 70.5257 45.472C70.7177 45.408 70.8897 45.348 71.0417 45.292L71.2337 45.904C71.0417 45.976 70.8137 46.052 70.5497 46.132C70.2937 46.212 70.0337 46.288 69.7697 46.36C69.5057 46.432 69.2617 46.496 69.0377 46.552ZM84.1932 46.696V55H83.1012V48.808L80.3412 55H79.5732L76.8012 48.796V55H75.7092V46.696H76.8852L79.9572 53.56L83.0292 46.696H84.1932ZM85.6371 51.688C85.6371 51.016 85.7731 50.428 86.0451 49.924C86.3171 49.412 86.6891 49.016 87.1611 48.736C87.6411 48.456 88.1731 48.316 88.7571 48.316C89.3331 48.316 89.8331 48.44 90.2571 48.688C90.6811 48.936 90.9971 49.248 91.2051 49.624V48.424H92.3091V55H91.2051V53.776C90.9891 54.16 90.6651 54.48 90.2331 54.736C89.8091 54.984 89.3131 55.108 88.7451 55.108C88.1611 55.108 87.6331 54.964 87.1611 54.676C86.6891 54.388 86.3171 53.984 86.0451 53.464C85.7731 52.944 85.6371 52.352 85.6371 51.688ZM91.2051 51.7C91.2051 51.204 91.1051 50.772 90.9051 50.404C90.7051 50.036 90.4331 49.756 90.0891 49.564C89.7531 49.364 89.3811 49.264 88.9731 49.264C88.5651 49.264 88.1931 49.36 87.8571 49.552C87.5211 49.744 87.2531 50.024 87.0531 50.392C86.8531 50.76 86.7531 51.192 86.7531 51.688C86.7531 52.192 86.8531 52.632 87.0531 53.008C87.2531 53.376 87.5211 53.66 87.8571 53.86C88.1931 54.052 88.5651 54.148 88.9731 54.148C89.3811 54.148 89.7531 54.052 90.0891 53.86C90.4331 53.66 90.7051 53.376 90.9051 53.008C91.1051 52.632 91.2051 52.196 91.2051 51.7ZM93.7465 51.7C93.7465 51.02 93.8825 50.428 94.1545 49.924C94.4265 49.412 94.8025 49.016 95.2825 48.736C95.7705 48.456 96.3265 48.316 96.9505 48.316C97.7585 48.316 98.4225 48.512 98.9425 48.904C99.4705 49.296 99.8185 49.84 99.9865 50.536H98.8105C98.6985 50.136 98.4785 49.82 98.1505 49.588C97.8305 49.356 97.4305 49.24 96.9505 49.24C96.3265 49.24 95.8225 49.456 95.4385 49.888C95.0545 50.312 94.8625 50.916 94.8625 51.7C94.8625 52.492 95.0545 53.104 95.4385 53.536C95.8225 53.968 96.3265 54.184 96.9505 54.184C97.4305 54.184 97.8305 54.072 98.1505 53.848C98.4705 53.624 98.6905 53.304 98.8105 52.888H99.9865C99.8105 53.56 99.4585 54.1 98.9305 54.508C98.4025 54.908 97.7425 55.108 96.9505 55.108C96.3265 55.108 95.7705 54.968 95.2825 54.688C94.8025 54.408 94.4265 54.012 94.1545 53.5C93.8825 52.988 93.7465 52.388 93.7465 51.7ZM105.236 55.084C104.46 55.084 103.752 54.904 103.112 54.544C102.472 54.176 101.964 53.668 101.588 53.02C101.22 52.364 101.036 51.628 101.036 50.812C101.036 49.996 101.22 49.264 101.588 48.616C101.964 47.96 102.472 47.452 103.112 47.092C103.752 46.724 104.46 46.54 105.236 46.54C106.02 46.54 106.732 46.724 107.372 47.092C108.012 47.452 108.516 47.956 108.884 48.604C109.252 49.252 109.436 49.988 109.436 50.812C109.436 51.636 109.252 52.372 108.884 53.02C108.516 53.668 108.012 54.176 107.372 54.544C106.732 54.904 106.02 55.084 105.236 55.084ZM105.236 54.136C105.82 54.136 106.344 54 106.808 53.728C107.28 53.456 107.648 53.068 107.912 52.564C108.184 52.06 108.32 51.476 108.32 50.812C108.32 50.14 108.184 49.556 107.912 49.06C107.648 48.556 107.284 48.168 106.82 47.896C106.356 47.624 105.828 47.488 105.236 47.488C104.644 47.488 104.116 47.624 103.652 47.896C103.188 48.168 102.82 48.556 102.548 49.06C102.284 49.556 102.152 50.14 102.152 50.812C102.152 51.476 102.284 52.06 102.548 52.564C102.82 53.068 103.188 53.456 103.652 53.728C104.124 54 104.652 54.136 105.236 54.136ZM113.529 55.084C112.977 55.084 112.481 54.988 112.041 54.796C111.609 54.596 111.269 54.324 111.021 53.98C110.773 53.628 110.645 53.224 110.637 52.768H111.801C111.841 53.16 112.001 53.492 112.281 53.764C112.569 54.028 112.985 54.16 113.529 54.16C114.049 54.16 114.457 54.032 114.753 53.776C115.057 53.512 115.209 53.176 115.209 52.768C115.209 52.448 115.121 52.188 114.945 51.988C114.769 51.788 114.549 51.636 114.285 51.532C114.021 51.428 113.665 51.316 113.217 51.196C112.665 51.052 112.221 50.908 111.885 50.764C111.557 50.62 111.273 50.396 111.033 50.092C110.801 49.78 110.685 49.364 110.685 48.844C110.685 48.388 110.801 47.984 111.033 47.632C111.265 47.28 111.589 47.008 112.005 46.816C112.429 46.624 112.913 46.528 113.457 46.528C114.241 46.528 114.881 46.724 115.377 47.116C115.881 47.508 116.165 48.028 116.229 48.676H115.029C114.989 48.356 114.821 48.076 114.525 47.836C114.229 47.588 113.837 47.464 113.349 47.464C112.893 47.464 112.521 47.584 112.233 47.824C111.945 48.056 111.801 48.384 111.801 48.808C111.801 49.112 111.885 49.36 112.053 49.552C112.229 49.744 112.441 49.892 112.689 49.996C112.945 50.092 113.301 50.204 113.757 50.332C114.309 50.484 114.753 50.636 115.089 50.788C115.425 50.932 115.713 51.16 115.953 51.472C116.193 51.776 116.313 52.192 116.313 52.72C116.313 53.128 116.205 53.512 115.989 53.872C115.773 54.232 115.453 54.524 115.029 54.748C114.605 54.972 114.105 55.084 113.529 55.084ZM120.651 47.32V46.324H122.907V55H121.803V47.32H120.651ZM124.783 50.572C124.783 49.196 125.007 48.124 125.455 47.356C125.903 46.58 126.687 46.192 127.807 46.192C128.919 46.192 129.699 46.58 130.147 47.356C130.595 48.124 130.819 49.196 130.819 50.572C130.819 51.972 130.595 53.06 130.147 53.836C129.699 54.612 128.919 55 127.807 55C126.687 55 125.903 54.612 125.455 53.836C125.007 53.06 124.783 51.972 124.783 50.572ZM129.739 50.572C129.739 49.876 129.691 49.288 129.595 48.808C129.507 48.32 129.319 47.928 129.031 47.632C128.751 47.336 128.343 47.188 127.807 47.188C127.263 47.188 126.847 47.336 126.559 47.632C126.279 47.928 126.091 48.32 125.995 48.808C125.907 49.288 125.863 49.876 125.863 50.572C125.863 51.292 125.907 51.896 125.995 52.384C126.091 52.872 126.279 53.264 126.559 53.56C126.847 53.856 127.263 54.004 127.807 54.004C128.343 54.004 128.751 53.856 129.031 53.56C129.319 53.264 129.507 52.872 129.595 52.384C129.691 51.896 129.739 51.292 129.739 50.572ZM132.846 55.072C132.638 55.072 132.462 55 132.318 54.856C132.174 54.712 132.102 54.536 132.102 54.328C132.102 54.12 132.174 53.944 132.318 53.8C132.462 53.656 132.638 53.584 132.846 53.584C133.046 53.584 133.214 53.656 133.35 53.8C133.494 53.944 133.566 54.12 133.566 54.328C133.566 54.536 133.494 54.712 133.35 54.856C133.214 55 133.046 55.072 132.846 55.072ZM134.55 47.32V46.324H136.806V55H135.702V47.32H134.55ZM138.658 48.508C138.714 47.772 138.998 47.196 139.51 46.78C140.022 46.364 140.686 46.156 141.502 46.156C142.046 46.156 142.514 46.256 142.906 46.456C143.306 46.648 143.606 46.912 143.806 47.248C144.014 47.584 144.118 47.964 144.118 48.388C144.118 48.884 143.974 49.312 143.686 49.672C143.406 50.032 143.038 50.264 142.582 50.368V50.428C143.102 50.556 143.514 50.808 143.818 51.184C144.122 51.56 144.273 52.052 144.273 52.66C144.273 53.116 144.17 53.528 143.962 53.896C143.754 54.256 143.442 54.54 143.026 54.748C142.61 54.956 142.11 55.06 141.526 55.06C140.678 55.06 139.982 54.84 139.438 54.4C138.894 53.952 138.59 53.32 138.526 52.504H139.582C139.638 52.984 139.834 53.376 140.17 53.68C140.506 53.984 140.954 54.136 141.514 54.136C142.074 54.136 142.498 53.992 142.786 53.704C143.082 53.408 143.23 53.028 143.23 52.564C143.23 51.964 143.03 51.532 142.63 51.268C142.23 51.004 141.626 50.872 140.818 50.872H140.542V49.96H140.83C141.566 49.952 142.122 49.832 142.498 49.6C142.874 49.36 143.062 48.992 143.062 48.496C143.062 48.072 142.922 47.732 142.642 47.476C142.37 47.22 141.978 47.092 141.465 47.092C140.97 47.092 140.57 47.22 140.266 47.476C139.962 47.732 139.782 48.076 139.726 48.508H138.658ZM149.091 59.716C148.955 59.188 148.835 58.672 148.731 58.168C148.635 57.664 148.563 57.2 148.515 56.776C148.467 56.352 148.443 56.004 148.443 55.732C148.443 55.244 148.531 54.84 148.707 54.52C148.883 54.192 149.119 53.94 149.415 53.764C149.711 53.58 150.039 53.456 150.399 53.392C150.767 53.328 151.143 53.308 151.527 53.332C151.919 53.348 152.287 53.396 152.631 53.476C152.655 53.204 152.639 52.944 152.583 52.696C152.535 52.44 152.451 52.216 152.331 52.024C152.219 51.824 152.075 51.668 151.899 51.556C151.723 51.444 151.523 51.388 151.299 51.388C151.099 51.388 150.911 51.432 150.735 51.52C150.559 51.608 150.391 51.744 150.231 51.928C150.079 52.104 149.931 52.324 149.787 52.588L149.043 52.18C149.251 51.748 149.479 51.404 149.727 51.148C149.983 50.892 150.251 50.708 150.531 50.596C150.811 50.476 151.087 50.416 151.359 50.416C151.767 50.416 152.111 50.504 152.391 50.68C152.671 50.848 152.891 51.072 153.051 51.352C153.219 51.624 153.339 51.92 153.411 52.24C153.491 52.552 153.531 52.852 153.531 53.14C153.531 53.34 153.507 53.54 153.459 53.74C153.411 53.94 153.351 54.12 153.279 54.28C153.215 54.44 153.151 54.564 153.087 54.652C152.655 54.524 152.251 54.432 151.875 54.376C151.499 54.32 151.159 54.304 150.855 54.328C150.559 54.344 150.303 54.408 150.087 54.52C149.871 54.632 149.707 54.792 149.595 55C149.483 55.208 149.427 55.472 149.427 55.792C149.427 56.088 149.451 56.44 149.499 56.848C149.547 57.256 149.615 57.684 149.703 58.132C149.791 58.588 149.895 59.036 150.015 59.476L149.091 59.716ZM157.508 55.06C156.868 55.06 156.376 54.988 156.032 54.844C155.696 54.7 155.464 54.476 155.336 54.172C155.208 53.868 155.136 53.476 155.12 52.996L154.88 46.432H155.864L156.104 52.612C156.12 53.004 156.156 53.308 156.212 53.524C156.276 53.732 156.412 53.876 156.62 53.956C156.836 54.036 157.172 54.076 157.628 54.076C157.796 54.076 157.916 54.124 157.988 54.22C158.068 54.308 158.108 54.416 158.108 54.544C158.108 54.672 158.052 54.792 157.94 54.904C157.828 55.008 157.684 55.06 157.508 55.06ZM166.028 55.06C165.82 55.06 165.556 55.04 165.236 55C164.924 54.952 164.604 54.872 164.276 54.76C163.956 54.648 163.684 54.492 163.46 54.292L164.444 53.8C164.724 53.912 165.012 53.988 165.308 54.028C165.612 54.06 165.892 54.076 166.148 54.076C166.316 54.076 166.436 54.124 166.508 54.22C166.588 54.308 166.628 54.416 166.628 54.544C166.628 54.672 166.572 54.792 166.46 54.904C166.348 55.008 166.204 55.06 166.028 55.06ZM157.508 55.06L157.628 54.076H160.136C160.832 54.076 161.432 54.048 161.936 53.992C162.448 53.928 162.868 53.836 163.196 53.716C163.524 53.596 163.768 53.444 163.928 53.26C164.088 53.068 164.168 52.844 164.168 52.588C164.168 52.452 164.124 52.304 164.036 52.144C163.948 51.984 163.812 51.848 163.628 51.736C163.444 51.616 163.2 51.556 162.896 51.556C162.512 51.556 162.128 51.656 161.744 51.856C161.368 52.056 161.008 52.308 160.664 52.612C160.328 52.908 160.028 53.212 159.764 53.524C159.5 53.836 159.288 54.108 159.128 54.34L158.084 54.304C158.34 53.888 158.644 53.464 158.996 53.032C159.356 52.592 159.748 52.188 160.172 51.82C160.604 51.444 161.056 51.144 161.528 50.92C162 50.688 162.48 50.572 162.968 50.572C163.408 50.572 163.784 50.664 164.096 50.848C164.416 51.024 164.66 51.264 164.828 51.568C165.004 51.872 165.092 52.216 165.092 52.6C165.092 52.976 164.956 53.356 164.684 53.74C164.412 54.116 163.944 54.412 163.28 54.628C162.944 54.74 162.56 54.828 162.128 54.892C161.696 54.956 161.204 55 160.652 55.024C160.1 55.048 159.472 55.06 158.768 55.06H157.508ZM158.648 53.872L158.408 46.432H159.38L159.62 53.032L158.648 53.872ZM162.38 49.336C162.212 49.336 162.068 49.28 161.948 49.168C161.836 49.048 161.78 48.908 161.78 48.748C161.78 48.588 161.836 48.448 161.948 48.328C162.068 48.208 162.212 48.148 162.38 48.148C162.54 48.148 162.676 48.208 162.788 48.328C162.908 48.448 162.968 48.588 162.968 48.748C162.968 48.908 162.908 49.048 162.788 49.168C162.676 49.28 162.54 49.336 162.38 49.336ZM166.027 55.06L166.147 54.076C166.483 54.076 166.747 54.048 166.939 53.992C167.131 53.928 167.275 53.812 167.371 53.644C167.475 53.468 167.563 53.216 167.635 52.888C167.707 52.56 167.795 52.132 167.899 51.604L168.835 51.784C168.803 51.928 168.767 52.088 168.727 52.264C168.687 52.44 168.651 52.616 168.619 52.792C168.595 52.96 168.583 53.108 168.583 53.236C168.583 53.396 168.619 53.54 168.691 53.668C168.763 53.796 168.919 53.896 169.159 53.968C169.399 54.04 169.767 54.076 170.263 54.076C170.431 54.076 170.551 54.124 170.623 54.22C170.703 54.308 170.743 54.416 170.743 54.544C170.743 54.672 170.687 54.792 170.575 54.904C170.463 55.008 170.319 55.06 170.143 55.06C169.623 55.06 169.215 55.016 168.919 54.928C168.623 54.832 168.407 54.692 168.271 54.508C168.135 54.316 168.043 54.084 167.995 53.812L168.355 53.836C168.227 54.092 168.087 54.3 167.935 54.46C167.791 54.62 167.631 54.744 167.455 54.832C167.279 54.92 167.075 54.98 166.843 55.012C166.611 55.044 166.339 55.06 166.027 55.06ZM167.899 50.368C167.731 50.368 167.587 50.312 167.467 50.2C167.355 50.08 167.299 49.94 167.299 49.78C167.299 49.62 167.355 49.48 167.467 49.36C167.587 49.24 167.731 49.18 167.899 49.18C168.059 49.18 168.195 49.24 168.307 49.36C168.427 49.48 168.487 49.62 168.487 49.78C168.487 49.94 168.427 50.08 168.307 50.2C168.195 50.312 168.059 50.368 167.899 50.368ZM170.141 55.06L170.249 54.076C170.705 54.076 171.025 54.032 171.209 53.944C171.393 53.856 171.497 53.7 171.521 53.476C171.553 53.252 171.561 52.94 171.545 52.54L171.317 46.432H172.289L172.529 52.432C172.545 52.856 172.529 53.232 172.481 53.56C172.441 53.888 172.337 54.164 172.169 54.388C172.009 54.612 171.765 54.78 171.437 54.892C171.117 55.004 170.685 55.06 170.141 55.06ZM176.505 57.784L176.157 56.872C176.741 56.68 177.225 56.46 177.609 56.212C178.001 55.964 178.309 55.7 178.533 55.42C178.765 55.14 178.929 54.856 179.025 54.568C179.121 54.272 179.169 53.988 179.169 53.716C179.169 53.324 179.081 52.928 178.905 52.528C178.737 52.12 178.549 51.736 178.341 51.376L179.217 50.932C179.369 51.212 179.501 51.488 179.613 51.76C179.733 52.032 179.837 52.288 179.925 52.528C180.021 52.768 180.097 52.988 180.153 53.188C180.265 53.532 180.409 53.768 180.585 53.896C180.769 54.016 181.017 54.076 181.329 54.076C181.497 54.076 181.617 54.124 181.689 54.22C181.769 54.308 181.809 54.416 181.809 54.544C181.809 54.672 181.753 54.792 181.641 54.904C181.529 55.008 181.385 55.06 181.209 55.06C180.857 55.06 180.569 55 180.345 54.88C180.129 54.752 179.965 54.588 179.853 54.388C179.741 54.18 179.665 53.964 179.625 53.74L180.009 53.956C180.009 54.484 179.889 54.964 179.649 55.396C179.417 55.836 179.117 56.216 178.749 56.536C178.381 56.864 177.997 57.132 177.597 57.34C177.197 57.548 176.833 57.696 176.505 57.784ZM181.215 55.06L181.335 54.076C181.535 54.076 181.755 54.076 181.995 54.076C182.243 54.068 182.491 54.06 182.739 54.052C182.995 54.044 183.231 54.028 183.447 54.004C183.663 53.972 183.843 53.932 183.987 53.884C184.275 53.78 184.499 53.652 184.659 53.5C184.819 53.34 184.931 53.132 184.995 52.876C185.067 52.612 185.103 52.276 185.103 51.868C185.103 51.532 185.059 51.22 184.971 50.932C184.883 50.644 184.759 50.412 184.599 50.236C184.439 50.06 184.247 49.972 184.023 49.972C183.839 49.972 183.671 50.044 183.519 50.188C183.375 50.324 183.259 50.5 183.171 50.716C183.091 50.932 183.051 51.148 183.051 51.364C183.051 51.532 183.083 51.676 183.147 51.796C183.219 51.916 183.335 52.012 183.495 52.084C183.655 52.148 183.863 52.18 184.119 52.18C184.351 52.18 184.583 52.156 184.815 52.108C185.055 52.06 185.259 51.996 185.427 51.916L185.475 52.756C185.347 52.844 185.203 52.916 185.043 52.972C184.883 53.028 184.715 53.068 184.539 53.092C184.363 53.116 184.187 53.128 184.011 53.128C183.603 53.128 183.255 53.064 182.967 52.936C182.687 52.8 182.471 52.62 182.319 52.396C182.175 52.164 182.103 51.9 182.103 51.604C182.103 51.3 182.151 50.996 182.247 50.692C182.343 50.38 182.479 50.096 182.655 49.84C182.831 49.584 183.043 49.38 183.291 49.228C183.539 49.068 183.815 48.988 184.119 48.988C184.551 48.988 184.907 49.128 185.187 49.408C185.475 49.688 185.687 50.056 185.823 50.512C185.967 50.96 186.039 51.436 186.039 51.94C186.039 52.54 185.935 53.056 185.727 53.488C185.527 53.912 185.191 54.264 184.719 54.544C184.535 54.648 184.311 54.736 184.047 54.808C183.791 54.872 183.507 54.924 183.195 54.964C182.891 55.004 182.571 55.028 182.235 55.036C181.899 55.052 181.559 55.06 181.215 55.06ZM183.891 47.752C183.723 47.752 183.579 47.696 183.459 47.584C183.347 47.464 183.291 47.324 183.291 47.164C183.291 47.004 183.347 46.864 183.459 46.744C183.579 46.624 183.723 46.564 183.891 46.564C184.051 46.564 184.187 46.624 184.299 46.744C184.419 46.864 184.479 47.004 184.479 47.164C184.479 47.324 184.419 47.464 184.299 47.584C184.187 47.696 184.051 47.752 183.891 47.752ZM187.278 57.76L187.062 56.776C187.542 56.712 187.982 56.62 188.382 56.5C188.79 56.388 189.138 56.224 189.426 56.008C189.722 55.792 189.95 55.508 190.11 55.156C190.27 54.804 190.35 54.364 190.35 53.836C190.35 53.292 190.25 52.84 190.05 52.48C189.85 52.12 189.59 51.94 189.27 51.94C189.102 51.94 188.946 52.004 188.802 52.132C188.658 52.26 188.538 52.432 188.442 52.648C188.354 52.864 188.31 53.1 188.31 53.356C188.31 53.5 188.342 53.62 188.406 53.716C188.47 53.804 188.562 53.876 188.682 53.932C188.81 53.98 188.97 54.016 189.162 54.04C189.354 54.064 189.578 54.076 189.834 54.076H192.366C192.534 54.076 192.654 54.124 192.726 54.22C192.806 54.308 192.846 54.416 192.846 54.544C192.846 54.672 192.79 54.792 192.678 54.904C192.566 55.008 192.422 55.06 192.246 55.06H189.378C189.018 55.06 188.682 55.008 188.37 54.904C188.066 54.8 187.818 54.64 187.626 54.424C187.442 54.2 187.35 53.908 187.35 53.548C187.35 53.212 187.402 52.892 187.506 52.588C187.61 52.276 187.75 52 187.926 51.76C188.11 51.512 188.322 51.316 188.562 51.172C188.81 51.028 189.078 50.956 189.366 50.956C189.734 50.956 190.062 51.064 190.35 51.28C190.638 51.496 190.866 51.824 191.034 52.264C191.202 52.696 191.286 53.244 191.286 53.908C191.286 54.652 191.134 55.292 190.83 55.828C190.534 56.372 190.086 56.804 189.486 57.124C188.894 57.444 188.158 57.656 187.278 57.76ZM192.242 55.06L192.362 54.076C192.762 54.076 193.074 54.048 193.298 53.992C193.522 53.928 193.69 53.812 193.802 53.644C193.922 53.468 194.018 53.216 194.09 52.888C194.162 52.56 194.25 52.132 194.354 51.604L195.29 51.784C195.258 51.928 195.222 52.088 195.182 52.264C195.142 52.44 195.106 52.616 195.074 52.792C195.05 52.96 195.038 53.108 195.038 53.236C195.038 53.356 195.046 53.468 195.062 53.572C195.078 53.676 195.138 53.764 195.242 53.836C195.346 53.908 195.522 53.968 195.77 54.016C196.018 54.056 196.374 54.076 196.838 54.076C197.006 54.076 197.126 54.124 197.198 54.22C197.278 54.308 197.318 54.416 197.318 54.544C197.318 54.672 197.262 54.792 197.15 54.904C197.038 55.008 196.894 55.06 196.718 55.06C196.23 55.06 195.842 55.036 195.554 54.988C195.266 54.932 195.046 54.852 194.894 54.748C194.75 54.644 194.646 54.516 194.582 54.364C194.526 54.204 194.482 54.02 194.45 53.812L194.81 53.836C194.682 54.092 194.542 54.3 194.39 54.46C194.246 54.62 194.078 54.744 193.886 54.832C193.694 54.92 193.462 54.98 193.19 55.012C192.926 55.044 192.61 55.06 192.242 55.06ZM195.446 50.368C195.278 50.368 195.134 50.312 195.014 50.2C194.902 50.08 194.846 49.94 194.846 49.78C194.846 49.62 194.902 49.48 195.014 49.36C195.134 49.24 195.278 49.18 195.446 49.18C195.606 49.18 195.742 49.24 195.854 49.36C195.974 49.48 196.034 49.62 196.034 49.78C196.034 49.94 195.974 50.08 195.854 50.2C195.742 50.312 195.606 50.368 195.446 50.368ZM193.802 50.368C193.634 50.368 193.49 50.312 193.37 50.2C193.258 50.08 193.202 49.94 193.202 49.78C193.202 49.62 193.258 49.48 193.37 49.36C193.49 49.24 193.634 49.18 193.802 49.18C193.962 49.18 194.098 49.24 194.21 49.36C194.33 49.48 194.39 49.62 194.39 49.78C194.39 49.94 194.33 50.08 194.21 50.2C194.098 50.312 193.962 50.368 193.802 50.368ZM196.719 55.06L196.839 54.076C197.063 54.076 197.251 54.028 197.403 53.932C197.555 53.836 197.703 53.676 197.847 53.452C197.991 53.228 198.147 52.928 198.315 52.552C198.547 52.04 198.775 51.652 198.999 51.388C199.231 51.124 199.459 50.944 199.683 50.848C199.915 50.752 200.143 50.704 200.367 50.704C200.639 50.704 200.891 50.776 201.123 50.92C201.355 51.056 201.559 51.24 201.735 51.472C201.911 51.704 202.047 51.96 202.143 52.24C202.247 52.512 202.299 52.784 202.299 53.056C202.299 53.536 202.215 53.92 202.047 54.208C201.879 54.488 201.663 54.692 201.399 54.82C201.143 54.94 200.875 55 200.595 55C200.347 55 200.027 54.952 199.635 54.856C199.251 54.76 198.763 54.516 198.171 54.124L198.639 53.368C199.031 53.616 199.383 53.788 199.695 53.884C200.015 53.972 200.279 54.016 200.487 54.016C200.719 54.016 200.903 53.984 201.039 53.92C201.175 53.848 201.275 53.748 201.339 53.62C201.403 53.492 201.435 53.348 201.435 53.188C201.435 52.956 201.379 52.724 201.267 52.492C201.155 52.26 201.011 52.068 200.835 51.916C200.667 51.764 200.487 51.688 200.295 51.688C200.151 51.688 200.011 51.728 199.875 51.808C199.739 51.888 199.599 52.036 199.455 52.252C199.311 52.468 199.147 52.78 198.963 53.188C198.771 53.62 198.587 53.964 198.411 54.22C198.243 54.468 198.071 54.652 197.895 54.772C197.719 54.892 197.535 54.968 197.343 55C197.159 55.04 196.951 55.06 196.719 55.06Z" fill="white"/>
<path fill-rule="evenodd" clip-rule="evenodd" d="M224.506 37.6517C224.506 34.4412 225.798 30.3666 227.878 27.0185C228.904 25.3668 230.036 24.0269 231.209 23.0447L215 23V44.4772V47.9553H230.728V38.5214H224.506V37.6517ZM222.259 32.435C222.259 33.0112 221.795 33.4784 221.222 33.4784C220.65 33.4784 220.185 33.0112 220.185 32.435V29.3049C220.185 28.7287 220.65 28.2615 221.222 28.2615C221.795 28.2615 222.259 28.7287 222.259 29.3049V32.435ZM243 23L234.623 23.0447C230.667 24.2378 226.671 31.3748 226.268 36.7821H232.457V47.9553L243 48V23ZM237.815 32.435C237.815 33.0112 237.351 33.4784 236.778 33.4784C236.205 33.4784 235.741 33.0112 235.741 32.435V29.3049C235.741 28.7287 236.205 28.2615 236.778 28.2615C237.351 28.2615 237.815 28.7287 237.815 29.3049V32.435Z" fill="white"/>
<path d="M101.36 103.012C101.36 102.724 101.4 102.404 101.48 102.052C101.56 101.7 101.688 101.312 101.864 100.888L102.728 101.224C102.6 101.56 102.504 101.868 102.44 102.148C102.376 102.428 102.344 102.688 102.344 102.928C102.344 103.368 102.452 103.724 102.668 103.996C102.892 104.276 103.188 104.48 103.556 104.608C103.932 104.736 104.344 104.8 104.792 104.8C105.336 104.8 105.792 104.74 106.16 104.62C106.528 104.508 106.82 104.352 107.036 104.152C107.252 103.952 107.404 103.724 107.492 103.468C107.588 103.22 107.636 102.96 107.636 102.688C107.636 102.336 107.608 102.004 107.552 101.692C107.504 101.38 107.436 101.076 107.348 100.78C107.268 100.476 107.18 100.168 107.084 99.856L108.056 99.592C108.144 99.896 108.212 100.144 108.26 100.336C108.308 100.52 108.344 100.668 108.368 100.78C108.4 100.892 108.428 100.992 108.452 101.08C108.54 101.376 108.656 101.596 108.8 101.74C108.944 101.876 109.108 101.968 109.292 102.016C109.484 102.056 109.68 102.076 109.88 102.076C110.048 102.076 110.168 102.124 110.24 102.22C110.32 102.308 110.36 102.416 110.36 102.544C110.36 102.672 110.304 102.792 110.192 102.904C110.08 103.008 109.936 103.06 109.76 103.06C109.424 103.06 109.144 103.004 108.92 102.892C108.696 102.772 108.52 102.624 108.392 102.448C108.272 102.272 108.192 102.088 108.152 101.896L108.644 102.508C108.62 102.916 108.54 103.312 108.404 103.696C108.276 104.088 108.068 104.44 107.78 104.752C107.492 105.072 107.1 105.324 106.604 105.508C106.116 105.692 105.5 105.784 104.756 105.784C104.3 105.784 103.868 105.728 103.46 105.616C103.052 105.504 102.688 105.332 102.368 105.1C102.056 104.876 101.808 104.588 101.624 104.236C101.448 103.892 101.36 103.484 101.36 103.012ZM104.984 98.224C104.816 98.224 104.672 98.168 104.552 98.056C104.44 97.936 104.384 97.796 104.384 97.636C104.384 97.476 104.44 97.336 104.552 97.216C104.672 97.096 104.816 97.036 104.984 97.036C105.144 97.036 105.28 97.096 105.392 97.216C105.512 97.336 105.572 97.476 105.572 97.636C105.572 97.796 105.512 97.936 105.392 98.056C105.28 98.168 105.144 98.224 104.984 98.224ZM109.766 103.06L109.886 102.076C110.11 102.076 110.298 102.028 110.45 101.932C110.602 101.836 110.75 101.676 110.894 101.452C111.038 101.228 111.194 100.928 111.362 100.552C111.594 100.04 111.822 99.652 112.046 99.388C112.278 99.124 112.506 98.944 112.73 98.848C112.962 98.752 113.19 98.704 113.414 98.704C113.686 98.704 113.938 98.776 114.17 98.92C114.402 99.056 114.606 99.24 114.782 99.472C114.958 99.704 115.094 99.96 115.19 100.24C115.294 100.512 115.346 100.784 115.346 101.056C115.346 101.536 115.262 101.92 115.094 102.208C114.926 102.488 114.71 102.692 114.446 102.82C114.19 102.94 113.922 103 113.642 103C113.394 103 113.074 102.952 112.682 102.856C112.298 102.76 111.81 102.516 111.218 102.124L111.686 101.368C112.078 101.616 112.43 101.788 112.742 101.884C113.062 101.972 113.326 102.016 113.534 102.016C113.766 102.016 113.95 101.984 114.086 101.92C114.222 101.848 114.322 101.748 114.386 101.62C114.45 101.492 114.482 101.348 114.482 101.188C114.482 100.956 114.426 100.724 114.314 100.492C114.202 100.26 114.058 100.068 113.882 99.916C113.714 99.764 113.534 99.688 113.342 99.688C113.198 99.688 113.058 99.728 112.922 99.808C112.786 99.888 112.646 100.036 112.502 100.252C112.358 100.468 112.194 100.78 112.01 101.188C111.818 101.62 111.634 101.964 111.458 102.22C111.29 102.468 111.118 102.652 110.942 102.772C110.766 102.892 110.582 102.968 110.39 103C110.206 103.04 109.998 103.06 109.766 103.06ZM117.138 103L116.934 95.272H117.906L118.11 103H117.138ZM118.218 94.108C117.978 94.108 117.762 94.068 117.57 93.988C117.378 93.9 117.202 93.816 117.042 93.736C116.882 93.656 116.734 93.616 116.598 93.616C116.454 93.616 116.322 93.652 116.202 93.724C116.09 93.796 115.97 93.896 115.842 94.024L115.386 93.64C115.57 93.408 115.762 93.228 115.962 93.1C116.162 92.964 116.374 92.896 116.598 92.896C116.798 92.896 116.982 92.936 117.15 93.016C117.318 93.096 117.486 93.176 117.654 93.256C117.83 93.336 118.018 93.376 118.218 93.376C118.346 93.376 118.466 93.356 118.578 93.316C118.69 93.268 118.826 93.196 118.986 93.1L119.334 93.592C119.078 93.816 118.858 93.96 118.674 94.024C118.498 94.08 118.346 94.108 118.218 94.108ZM123.251 103.012C123.251 102.82 123.267 102.616 123.299 102.4C123.339 102.176 123.395 101.94 123.467 101.692C123.547 101.436 123.643 101.168 123.755 100.888L124.619 101.224C124.539 101.448 124.467 101.66 124.403 101.86C124.347 102.06 124.303 102.248 124.271 102.424C124.247 102.6 124.235 102.768 124.235 102.928C124.235 103.336 124.343 103.68 124.559 103.96C124.775 104.24 125.055 104.448 125.399 104.584C125.751 104.728 126.127 104.8 126.527 104.8C127.311 104.8 127.923 104.66 128.363 104.38C128.803 104.108 129.111 103.744 129.287 103.288C129.463 102.84 129.539 102.348 129.515 101.812L129.251 94.432H130.247L130.439 100.516C130.455 100.924 130.519 101.244 130.631 101.476C130.751 101.7 130.911 101.856 131.111 101.944C131.311 102.032 131.531 102.076 131.771 102.076C131.939 102.076 132.059 102.124 132.131 102.22C132.211 102.308 132.251 102.416 132.251 102.544C132.251 102.672 132.195 102.792 132.083 102.904C131.971 103.008 131.827 103.06 131.651 103.06C131.403 103.06 131.191 103.028 131.015 102.964C130.839 102.892 130.695 102.804 130.583 102.7C130.471 102.588 130.383 102.464 130.319 102.328C130.255 102.184 130.207 102.04 130.175 101.896L130.511 102.232C130.479 102.656 130.387 103.076 130.235 103.492C130.091 103.916 129.867 104.3 129.563 104.644C129.259 104.988 128.851 105.264 128.339 105.472C127.835 105.68 127.211 105.784 126.467 105.784C126.051 105.784 125.647 105.72 125.255 105.592C124.871 105.472 124.527 105.292 124.223 105.052C123.927 104.812 123.691 104.52 123.515 104.176C123.339 103.84 123.251 103.452 123.251 103.012ZM131.656 103.06L131.776 102.076C132.176 102.076 132.488 102.048 132.712 101.992C132.936 101.928 133.104 101.812 133.216 101.644C133.336 101.468 133.432 101.216 133.504 100.888C133.576 100.56 133.664 100.132 133.768 99.604L134.704 99.784C134.672 99.928 134.636 100.088 134.596 100.264C134.556 100.44 134.52 100.616 134.488 100.792C134.464 100.96 134.452 101.108 134.452 101.236C134.452 101.356 134.46 101.468 134.476 101.572C134.492 101.676 134.552 101.764 134.656 101.836C134.76 101.908 134.936 101.968 135.184 102.016C135.432 102.056 135.788 102.076 136.252 102.076C136.42 102.076 136.54 102.124 136.612 102.22C136.692 102.308 136.732 102.416 136.732 102.544C136.732 102.672 136.676 102.792 136.564 102.904C136.452 103.008 136.308 103.06 136.132 103.06C135.644 103.06 135.256 103.036 134.968 102.988C134.68 102.932 134.46 102.852 134.308 102.748C134.164 102.644 134.06 102.516 133.996 102.364C133.94 102.204 133.896 102.02 133.864 101.812L134.224 101.836C134.096 102.092 133.956 102.3 133.804 102.46C133.66 102.62 133.492 102.744 133.3 102.832C133.108 102.92 132.876 102.98 132.604 103.012C132.34 103.044 132.024 103.06 131.656 103.06ZM134.68 105.328C134.512 105.328 134.368 105.268 134.248 105.148C134.136 105.036 134.08 104.9 134.08 104.74C134.08 104.58 134.136 104.44 134.248 104.32C134.368 104.2 134.512 104.14 134.68 104.14C134.84 104.14 134.976 104.2 135.088 104.32C135.208 104.44 135.268 104.58 135.268 104.74C135.268 104.9 135.208 105.036 135.088 105.148C134.976 105.268 134.84 105.328 134.68 105.328ZM133.036 105.328C132.868 105.328 132.724 105.268 132.604 105.148C132.492 105.036 132.436 104.9 132.436 104.74C132.436 104.58 132.492 104.44 132.604 104.32C132.724 104.2 132.868 104.14 133.036 104.14C133.196 104.14 133.332 104.2 133.444 104.32C133.564 104.44 133.624 104.58 133.624 104.74C133.624 104.9 133.564 105.036 133.444 105.148C133.332 105.268 133.196 105.328 133.036 105.328ZM136.133 103.06L136.253 102.076C136.477 102.076 136.653 102.028 136.781 101.932C136.917 101.836 137.045 101.676 137.165 101.452C137.293 101.228 137.453 100.928 137.645 100.552C137.837 100.168 138.029 99.856 138.221 99.616C138.421 99.368 138.613 99.176 138.797 99.04C138.989 98.896 139.169 98.796 139.337 98.74C139.505 98.684 139.661 98.656 139.805 98.656C140.069 98.656 140.305 98.716 140.513 98.836C140.721 98.948 140.917 99.144 141.101 99.424C141.285 99.696 141.473 100.072 141.665 100.552C141.849 100.992 142.013 101.324 142.157 101.548C142.309 101.764 142.465 101.908 142.625 101.98C142.793 102.044 142.981 102.076 143.189 102.076C143.357 102.076 143.477 102.124 143.549 102.22C143.629 102.308 143.669 102.416 143.669 102.544C143.669 102.672 143.613 102.792 143.501 102.904C143.389 103.008 143.245 103.06 143.069 103.06C142.757 103.06 142.469 103.008 142.205 102.904C141.949 102.8 141.733 102.636 141.557 102.412L141.725 102.16C141.637 102.408 141.517 102.612 141.365 102.772C141.221 102.924 141.057 103.036 140.873 103.108C140.689 103.188 140.493 103.228 140.285 103.228C140.021 103.228 139.749 103.172 139.469 103.06C139.197 102.948 138.933 102.788 138.677 102.58C138.421 102.372 138.197 102.128 138.005 101.848C137.797 102.216 137.597 102.488 137.405 102.664C137.221 102.832 137.029 102.94 136.829 102.988C136.629 103.036 136.397 103.06 136.133 103.06ZM138.461 100.936C138.597 101.16 138.741 101.356 138.893 101.524C139.053 101.692 139.213 101.832 139.373 101.944C139.533 102.048 139.689 102.128 139.841 102.184C140.001 102.232 140.145 102.256 140.273 102.256C140.553 102.256 140.757 102.156 140.885 101.956C141.021 101.756 141.017 101.476 140.873 101.116C140.801 100.932 140.725 100.752 140.645 100.576C140.573 100.4 140.493 100.24 140.405 100.096C140.317 99.944 140.217 99.828 140.105 99.748C139.993 99.66 139.869 99.616 139.733 99.616C139.613 99.616 139.485 99.656 139.349 99.736C139.221 99.816 139.081 99.952 138.929 100.144C138.785 100.336 138.629 100.6 138.461 100.936ZM150.714 103.06C150.378 103.06 150.07 103.04 149.79 103C149.51 102.952 149.258 102.868 149.034 102.748C148.81 102.628 148.622 102.456 148.47 102.232C148.318 102 148.202 101.696 148.122 101.32L148.83 100.9C148.934 101.22 149.062 101.464 149.214 101.632C149.366 101.8 149.57 101.916 149.826 101.98C150.09 102.044 150.426 102.076 150.834 102.076C151.002 102.076 151.122 102.124 151.194 102.22C151.274 102.308 151.314 102.416 151.314 102.544C151.314 102.672 151.258 102.792 151.146 102.904C151.034 103.008 150.89 103.06 150.714 103.06ZM143.07 103.06L143.178 102.076C143.594 102.076 144.002 102.044 144.402 101.98C144.802 101.916 145.194 101.824 145.578 101.704C145.962 101.584 146.33 101.44 146.682 101.272C147.042 101.096 147.382 100.896 147.702 100.672C147.494 100.488 147.254 100.328 146.982 100.192C146.71 100.056 146.41 99.952 146.082 99.88C145.762 99.8 145.422 99.76 145.062 99.76C144.934 99.76 144.814 99.764 144.702 99.772C144.59 99.78 144.478 99.796 144.366 99.82C144.254 99.836 144.126 99.86 143.982 99.892L143.79 98.98C144.006 98.916 144.222 98.868 144.438 98.836C144.654 98.796 144.862 98.776 145.062 98.776C145.478 98.776 145.854 98.828 146.19 98.932C146.526 99.028 146.83 99.148 147.102 99.292C147.382 99.436 147.642 99.58 147.882 99.724C148.13 99.868 148.37 99.992 148.602 100.096C148.834 100.192 149.074 100.24 149.322 100.24H149.574L149.658 101.104C149.314 101.104 148.998 101.152 148.71 101.248C148.422 101.344 148.138 101.468 147.858 101.62C147.586 101.764 147.298 101.92 146.994 102.088C146.69 102.248 146.354 102.404 145.986 102.556C145.618 102.7 145.194 102.82 144.714 102.916C144.242 103.012 143.694 103.06 143.07 103.06ZM150.711 103.06L150.831 102.076C151.303 102.076 151.671 102.06 151.935 102.028C152.199 101.988 152.387 101.896 152.499 101.752C152.611 101.6 152.667 101.364 152.667 101.044C152.667 100.844 152.635 100.608 152.571 100.336C152.507 100.056 152.423 99.76 152.319 99.448C152.215 99.136 152.103 98.828 151.983 98.524L152.955 98.164C153.059 98.42 153.155 98.712 153.243 99.04C153.339 99.368 153.419 99.692 153.483 100.012C153.547 100.332 153.579 100.612 153.579 100.852C153.579 101.252 153.523 101.592 153.411 101.872C153.307 102.152 153.139 102.38 152.907 102.556C152.675 102.732 152.375 102.86 152.007 102.94C151.647 103.02 151.215 103.06 150.711 103.06ZM153.327 96.916C153.159 96.916 153.015 96.86 152.895 96.748C152.783 96.628 152.727 96.488 152.727 96.328C152.727 96.168 152.783 96.028 152.895 95.908C153.015 95.788 153.159 95.728 153.327 95.728C153.487 95.728 153.623 95.788 153.735 95.908C153.855 96.028 153.915 96.168 153.915 96.328C153.915 96.488 153.855 96.628 153.735 96.748C153.623 96.86 153.487 96.916 153.327 96.916ZM151.683 96.916C151.515 96.916 151.371 96.86 151.251 96.748C151.139 96.628 151.083 96.488 151.083 96.328C151.083 96.168 151.139 96.028 151.251 95.908C151.371 95.788 151.515 95.728 151.683 95.728C151.843 95.728 151.979 95.788 152.091 95.908C152.211 96.028 152.271 96.168 152.271 96.328C152.271 96.488 152.211 96.628 152.091 96.748C151.979 96.86 151.843 96.916 151.683 96.916Z" fill="#808080"/>
<path d="M161 94.294C161 94.1249 161.123 93.981 161.291 93.9553C163.232 93.6566 165.066 92.872 166.623 91.6744L167.5 91L168.377 91.6744C169.934 92.872 171.768 93.6566 173.709 93.9553C173.877 93.981 174 94.1249 174 94.294V99.4501C174 101.656 172.856 103.704 170.977 104.86L167.5 107L164.023 104.86C162.145 103.704 161 101.656 161 99.4501V94.294Z" stroke="#808080" stroke-linejoin="round"/>
<path d="M164.5 98.5L167 101L171 97" stroke="#808080" stroke-linecap="round" stroke-linejoin="round"/>
</svg>
