<svg width="43" height="23" viewBox="0 0 43 23" fill="none" xmlns="http://www.w3.org/2000/svg">
<path d="M0 9.76549C0 4.37216 4.37216 0 9.76548 0H33.2345C38.6278 0 43 4.37216 43 9.76549C43 15.1588 38.6278 19.531 33.2345 19.531H32.25H20.8561C20.3983 19.531 19.9494 19.6566 19.5581 19.8943L14.4453 23L13.4976 20.5535C13.2589 19.9372 12.6659 19.531 12.005 19.531H9.76548C4.37216 19.531 0 15.1588 0 9.76549Z" fill="url(#paint0_linear_6817_41166)"/>
<path d="M15.992 14H14.312L10.508 8.252V14H8.828V5.612H10.508L14.312 11.372V5.612H15.992V14ZM19.3322 6.98V9.08H22.1522V10.412H19.3322V12.632H22.5122V14H17.6522V5.612H22.5122V6.98H19.3322ZM35.2349 5.624L32.8949 14H30.9149L29.3429 8.036L27.6989 14L25.7309 14.012L23.4749 5.624H25.2749L26.7509 12.128L28.4549 5.624H30.3269L31.9349 12.092L33.4229 5.624H35.2349Z" fill="white"/>
<defs>
<linearGradient id="paint0_linear_6817_41166" x1="3" y1="2.5" x2="31.5" y2="19.5" gradientUnits="userSpaceOnUse">
<stop stop-color="#BC4EFF"/>
<stop offset="1" stop-color="#5942FF"/>
</linearGradient>
</defs>
</svg>
