<svg width="308" height="111" viewBox="0 0 308 111" fill="none" xmlns="http://www.w3.org/2000/svg">
<rect x="0.334961" width="307" height="72" rx="36" fill="#6B57FF"/>
<path d="M147.675 31.1C146.435 31.1 145.475 30.9733 144.795 30.72C144.128 30.4667 143.662 30.0733 143.395 29.54C143.128 28.9933 142.975 28.3067 142.935 27.48L142.515 16.36H145.315L145.735 26.14C145.762 26.7533 145.828 27.2133 145.935 27.52C146.042 27.8267 146.242 28.0333 146.535 28.14C146.842 28.2467 147.288 28.3 147.875 28.3C148.382 28.3 148.742 28.4333 148.955 28.7C149.182 28.9533 149.295 29.2733 149.295 29.66C149.295 30.0733 149.155 30.42 148.875 30.7C148.595 30.9667 148.195 31.1 147.675 31.1ZM147.702 31.1L147.902 28.3C148.489 28.3 148.949 28.26 149.282 28.18C149.629 28.1 149.875 27.9533 150.022 27.74C150.169 27.5133 150.242 27.1933 150.242 26.78C150.242 26.4067 150.189 25.96 150.082 25.44C149.989 24.92 149.862 24.38 149.702 23.82C149.542 23.26 149.382 22.7467 149.222 22.28L151.982 21.52C152.142 21.9733 152.302 22.5 152.462 23.1C152.622 23.7 152.755 24.32 152.862 24.96C152.982 25.5867 153.042 26.1933 153.042 26.78C153.042 27.5133 152.949 28.1333 152.762 28.64C152.575 29.1333 152.315 29.5467 151.982 29.88C151.662 30.2 151.275 30.4533 150.822 30.64C150.382 30.8133 149.895 30.9333 149.362 31C148.829 31.0667 148.275 31.1 147.702 31.1ZM150.582 19.86C150.169 19.86 149.815 19.72 149.522 19.44C149.242 19.16 149.102 18.8133 149.102 18.4C149.102 17.9867 149.242 17.6333 149.522 17.34C149.815 17.0467 150.169 16.9 150.582 16.9C150.982 16.9 151.322 17.0467 151.602 17.34C151.895 17.6333 152.042 17.9867 152.042 18.4C152.042 18.8133 151.895 19.16 151.602 19.44C151.322 19.72 150.982 19.86 150.582 19.86ZM160.39 31.1C159.15 31.1 158.19 30.9733 157.51 30.72C156.843 30.4667 156.376 30.0733 156.11 29.54C155.843 28.9933 155.69 28.3067 155.65 27.48L155.23 16.36H158.03L158.45 26.14C158.476 26.7533 158.543 27.2133 158.65 27.52C158.756 27.8267 158.956 28.0333 159.25 28.14C159.556 28.2467 160.003 28.3 160.59 28.3C161.096 28.3 161.456 28.4333 161.67 28.7C161.896 28.9533 162.01 29.2733 162.01 29.66C162.01 30.0733 161.87 30.42 161.59 30.7C161.31 30.9667 160.91 31.1 160.39 31.1ZM173.497 31.1C172.884 31.1 172.31 31.0533 171.777 30.96C171.257 30.8667 170.777 30.7067 170.337 30.48C169.897 30.24 169.504 29.9133 169.157 29.5C168.824 29.0867 168.544 28.5667 168.317 27.94L169.897 26.68C170.137 27.1067 170.43 27.44 170.777 27.68C171.124 27.9067 171.537 28.0667 172.017 28.16C172.497 28.2533 173.057 28.3 173.697 28.3C174.204 28.3 174.564 28.4333 174.777 28.7C174.99 28.9533 175.097 29.2733 175.097 29.66C175.097 30.0733 174.957 30.42 174.677 30.7C174.41 30.9667 174.017 31.1 173.497 31.1ZM160.417 31.1L160.617 28.3C161.337 28.3 162.05 28.26 162.757 28.18C163.464 28.1 164.15 27.98 164.817 27.82C165.484 27.66 166.117 27.4533 166.717 27.2C167.33 26.9467 167.904 26.64 168.437 26.28C168.037 26.04 167.604 25.8333 167.137 25.66C166.67 25.4867 166.17 25.36 165.637 25.28C165.117 25.1867 164.564 25.14 163.977 25.14C163.764 25.14 163.537 25.1467 163.297 25.16C163.07 25.1733 162.837 25.2 162.597 25.24C162.357 25.2667 162.117 25.3067 161.877 25.36L161.477 22.62C161.864 22.5133 162.27 22.44 162.697 22.4C163.137 22.3467 163.524 22.32 163.857 22.32C164.577 22.32 165.237 22.4 165.837 22.56C166.45 22.72 167.01 22.92 167.517 23.16C168.037 23.4 168.517 23.64 168.957 23.88C169.41 24.12 169.837 24.32 170.237 24.48C170.65 24.64 171.05 24.72 171.437 24.72H172.177L172.497 27.38C171.924 27.4067 171.384 27.52 170.877 27.72C170.384 27.9067 169.89 28.1467 169.397 28.44C168.917 28.72 168.397 29.0133 167.837 29.32C167.29 29.6267 166.67 29.9133 165.977 30.18C165.284 30.4467 164.484 30.6667 163.577 30.84C162.67 31.0133 161.617 31.1 160.417 31.1ZM166.077 35.6C165.69 35.6 165.357 35.4667 165.077 35.2C164.81 34.9333 164.677 34.6067 164.677 34.22C164.677 33.8333 164.81 33.4933 165.077 33.2C165.357 32.92 165.69 32.78 166.077 32.78C166.464 32.78 166.79 32.92 167.057 33.2C167.337 33.4933 167.477 33.8333 167.477 34.22C167.477 34.6067 167.337 34.9333 167.057 35.2C166.79 35.4667 166.464 35.6 166.077 35.6ZM173.503 31.1L173.703 28.3C174.01 28.3 174.27 28.2267 174.483 28.08C174.71 27.92 174.943 27.66 175.183 27.3C175.423 26.9267 175.703 26.4267 176.023 25.8C176.423 25 176.836 24.3733 177.263 23.92C177.703 23.4667 178.15 23.1467 178.603 22.96C179.07 22.76 179.536 22.66 180.003 22.66C180.59 22.66 181.136 22.7867 181.643 23.04C182.15 23.2933 182.59 23.64 182.963 24.08C183.336 24.5067 183.623 25 183.823 25.56C184.036 26.1067 184.143 26.6733 184.143 27.26C184.143 27.9667 183.99 28.6067 183.683 29.18C183.39 29.74 182.976 30.1867 182.443 30.52C181.923 30.84 181.323 31 180.643 31C180.07 31 179.403 30.9 178.643 30.7C177.883 30.5 177.083 30.08 176.243 29.44L177.263 27.02C177.863 27.4333 178.423 27.7333 178.943 27.92C179.476 28.1067 179.916 28.2 180.263 28.2C180.53 28.2 180.75 28.1733 180.923 28.12C181.096 28.0667 181.223 27.98 181.303 27.86C181.383 27.74 181.423 27.58 181.423 27.38C181.423 27.1 181.356 26.8133 181.223 26.52C181.09 26.2267 180.91 25.98 180.683 25.78C180.47 25.5667 180.216 25.46 179.923 25.46C179.643 25.46 179.403 25.5667 179.203 25.78C179.016 25.98 178.83 26.2733 178.643 26.66C178.47 27.0333 178.256 27.4733 178.003 27.98C177.696 28.5933 177.396 29.1067 177.103 29.52C176.81 29.92 176.496 30.24 176.163 30.48C175.843 30.7067 175.463 30.8667 175.023 30.96C174.596 31.0533 174.09 31.1 173.503 31.1ZM189.902 30.44C189.902 30.1333 189.929 29.7733 189.982 29.36C190.035 28.9467 190.135 28.48 190.282 27.96C190.429 27.4267 190.649 26.8333 190.942 26.18L193.402 27.04C193.255 27.4533 193.129 27.8333 193.022 28.18C192.915 28.5133 192.835 28.8267 192.782 29.12C192.729 29.4 192.702 29.68 192.702 29.96C192.702 30.56 192.849 31.08 193.142 31.52C193.449 31.9733 193.862 32.32 194.382 32.56C194.915 32.8133 195.529 32.94 196.222 32.94C197.355 32.94 198.222 32.7533 198.822 32.38C199.435 32.02 199.849 31.4467 200.062 30.66C200.289 29.86 200.375 28.8267 200.322 27.56L199.922 16.36H202.742L203.042 25.82C203.069 26.4867 203.162 27 203.322 27.36C203.482 27.72 203.729 27.9667 204.062 28.1C204.409 28.2333 204.855 28.3 205.402 28.3C205.909 28.3 206.269 28.4333 206.482 28.7C206.695 28.9533 206.802 29.2733 206.802 29.66C206.802 30.0733 206.662 30.42 206.382 30.7C206.102 30.9667 205.709 31.1 205.202 31.1C204.909 31.1 204.595 31.06 204.262 30.98C203.929 30.9 203.609 30.7733 203.302 30.6C202.995 30.4267 202.729 30.2 202.502 29.92C202.275 29.6267 202.122 29.2667 202.042 28.84L203.122 28.3C203.122 29.6467 202.962 30.7867 202.642 31.72C202.335 32.6533 201.882 33.4067 201.282 33.98C200.695 34.5533 199.969 34.9667 199.102 35.22C198.249 35.4867 197.262 35.62 196.142 35.62C195.289 35.62 194.482 35.5133 193.722 35.3C192.975 35.0867 192.315 34.7667 191.742 34.34C191.169 33.9133 190.715 33.3733 190.382 32.72C190.062 32.08 189.902 31.32 189.902 30.44ZM205.202 31.1L205.402 28.3C206.202 28.3 206.815 28.26 207.242 28.18C207.669 28.1 207.962 27.9533 208.122 27.74C208.295 27.5133 208.382 27.1933 208.382 26.78C208.382 26.4067 208.329 25.96 208.222 25.44C208.129 24.92 208.002 24.38 207.842 23.82C207.695 23.26 207.535 22.7467 207.362 22.28L210.122 21.52C210.295 21.9733 210.462 22.5 210.622 23.1C210.782 23.7 210.915 24.32 211.022 24.96C211.129 25.5867 211.182 26.1933 211.182 26.78C211.182 27.6867 211.035 28.4267 210.742 29C210.449 29.56 210.035 29.9933 209.502 30.3C208.982 30.6067 208.355 30.82 207.622 30.94C206.889 31.0467 206.082 31.1 205.202 31.1ZM210.142 35.74C209.755 35.74 209.422 35.6 209.142 35.32C208.875 35.0533 208.742 34.7333 208.742 34.36C208.742 33.9733 208.875 33.64 209.142 33.36C209.422 33.08 209.755 32.94 210.142 32.94C210.515 32.94 210.835 33.08 211.102 33.36C211.369 33.64 211.502 33.9733 211.502 34.36C211.502 34.7333 211.369 35.0533 211.102 35.32C210.835 35.6 210.515 35.74 210.142 35.74ZM206.682 35.74C206.295 35.74 205.962 35.6 205.682 35.32C205.415 35.0533 205.282 34.7333 205.282 34.36C205.282 33.9733 205.415 33.64 205.682 33.36C205.962 33.08 206.295 32.94 206.682 32.94C207.055 32.94 207.375 33.08 207.642 33.36C207.909 33.64 208.042 33.9733 208.042 34.36C208.042 34.7333 207.909 35.0533 207.642 35.32C207.375 35.6 207.055 35.74 206.682 35.74ZM212.71 35.62L211.69 33.14C212.396 32.9 213.043 32.62 213.63 32.3C214.23 31.98 214.75 31.6267 215.19 31.24C215.63 30.8533 215.97 30.4333 216.21 29.98C216.45 29.5133 216.57 29.0133 216.57 28.48C216.57 27.92 216.443 27.3067 216.19 26.64C215.936 25.9733 215.63 25.2933 215.27 24.6L217.89 23.34C218.13 23.7533 218.336 24.2 218.51 24.68C218.696 25.1467 218.85 25.5667 218.97 25.94C219.09 26.3133 219.17 26.5667 219.21 26.7C219.396 27.34 219.65 27.7667 219.97 27.98C220.303 28.1933 220.836 28.3 221.57 28.3C222.076 28.3 222.436 28.4333 222.65 28.7C222.876 28.9533 222.99 29.2733 222.99 29.66C222.99 30.0733 222.85 30.42 222.57 30.7C222.29 30.9667 221.89 31.1 221.37 31.1C220.823 31.1 220.343 31.02 219.93 30.86C219.516 30.7 219.183 30.4667 218.93 30.16C218.69 29.8533 218.536 29.4933 218.47 29.08L219.21 29.5C219.13 30.2067 218.896 30.8733 218.51 31.5C218.136 32.14 217.65 32.7267 217.05 33.26C216.45 33.7933 215.776 34.26 215.03 34.66C214.283 35.06 213.51 35.38 212.71 35.62ZM216.79 21.3C216.376 21.3 216.023 21.16 215.73 20.88C215.45 20.6 215.31 20.2533 215.31 19.84C215.31 19.4267 215.45 19.0733 215.73 18.78C216.023 18.4867 216.376 18.34 216.79 18.34C217.19 18.34 217.53 18.4867 217.81 18.78C218.103 19.0733 218.25 19.4267 218.25 19.84C218.25 20.2533 218.103 20.6 217.81 20.88C217.53 21.16 217.19 21.3 216.79 21.3ZM221.394 31.1L221.594 28.3C222.1 28.3 222.5 28.2533 222.794 28.16C223.1 28.0667 223.34 27.88 223.514 27.6C223.7 27.3067 223.854 26.88 223.974 26.32C224.107 25.76 224.24 25.0133 224.374 24.08L226.994 24.52C226.967 24.72 226.927 24.9533 226.874 25.22C226.834 25.4867 226.794 25.76 226.754 26.04C226.727 26.3067 226.714 26.56 226.714 26.8C226.714 27.12 226.78 27.3933 226.914 27.62C227.06 27.8333 227.314 28 227.674 28.12C228.047 28.24 228.58 28.3 229.274 28.3C229.78 28.3 230.14 28.4333 230.354 28.7C230.567 28.9533 230.674 29.2733 230.674 29.66C230.674 30.0733 230.534 30.42 230.254 30.7C229.987 30.9667 229.594 31.1 229.074 31.1C228.154 31.1 227.407 31.0133 226.834 30.84C226.26 30.6667 225.834 30.3733 225.554 29.96C225.274 29.5467 225.094 28.98 225.014 28.26H225.974C225.734 28.9 225.454 29.4133 225.134 29.8C224.814 30.1733 224.454 30.4533 224.054 30.64C223.654 30.8267 223.227 30.9467 222.774 31C222.334 31.0667 221.874 31.1 221.394 31.1ZM225.474 22.04C225.06 22.04 224.707 21.9 224.414 21.62C224.134 21.34 223.994 20.9933 223.994 20.58C223.994 20.1667 224.134 19.8133 224.414 19.52C224.707 19.2267 225.06 19.08 225.474 19.08C225.874 19.08 226.214 19.2267 226.494 19.52C226.787 19.8133 226.934 20.1667 226.934 20.58C226.934 20.9933 226.787 21.34 226.494 21.62C226.214 21.9 225.874 22.04 225.474 22.04ZM229.069 31.1L229.269 28.3C230.069 28.3 230.683 28.26 231.109 28.18C231.536 28.1 231.829 27.9533 231.989 27.74C232.163 27.5133 232.249 27.1933 232.249 26.78C232.249 26.4067 232.196 25.96 232.089 25.44C231.996 24.92 231.869 24.38 231.709 23.82C231.563 23.26 231.403 22.7467 231.229 22.28L233.989 21.52C234.163 21.9733 234.329 22.5 234.489 23.1C234.649 23.7 234.783 24.32 234.889 24.96C234.996 25.5867 235.049 26.1933 235.049 26.78C235.049 27.6867 234.903 28.4267 234.609 29C234.316 29.56 233.903 29.9933 233.369 30.3C232.849 30.6067 232.223 30.82 231.489 30.94C230.756 31.0467 229.949 31.1 229.069 31.1ZM234.489 19.9C234.103 19.9 233.769 19.7667 233.489 19.5C233.223 19.22 233.089 18.8933 233.089 18.52C233.089 18.1333 233.223 17.8 233.489 17.52C233.769 17.24 234.103 17.1 234.489 17.1C234.863 17.1 235.183 17.24 235.449 17.52C235.716 17.8 235.849 18.1333 235.849 18.52C235.849 18.8933 235.716 19.22 235.449 19.5C235.183 19.7667 234.863 19.9 234.489 19.9ZM231.029 19.88C230.643 19.88 230.309 19.7467 230.029 19.48C229.763 19.2 229.629 18.8733 229.629 18.5C229.629 18.1133 229.763 17.78 230.029 17.5C230.309 17.22 230.643 17.08 231.029 17.08C231.403 17.08 231.723 17.22 231.989 17.5C232.256 17.78 232.389 18.1133 232.389 18.5C232.389 18.8733 232.256 19.2 231.989 19.48C231.723 19.7467 231.403 19.88 231.029 19.88Z" fill="white"/>
<path d="M37.015 55.252L37.327 54.268C37.815 54.268 38.331 54.24 38.875 54.184C39.419 54.12 39.959 54.012 40.495 53.86C41.039 53.7 41.555 53.484 42.043 53.212C42.531 52.94 42.959 52.596 43.327 52.18L44.083 52.624C44.011 52.808 43.963 52.956 43.939 53.068C43.915 53.172 43.903 53.268 43.903 53.356C43.903 53.476 43.947 53.592 44.035 53.704C44.123 53.808 44.287 53.896 44.527 53.968C44.775 54.04 45.123 54.076 45.571 54.076C45.739 54.076 45.859 54.124 45.931 54.22C46.011 54.308 46.051 54.416 46.051 54.544C46.051 54.672 45.995 54.792 45.883 54.904C45.771 55.008 45.627 55.06 45.451 55.06C44.939 55.06 44.487 55.008 44.095 54.904C43.711 54.792 43.423 54.62 43.231 54.388C43.047 54.148 42.987 53.84 43.051 53.464L43.267 53.536C42.947 53.824 42.563 54.076 42.115 54.292C41.675 54.5 41.183 54.676 40.639 54.82C40.103 54.964 39.527 55.072 38.911 55.144C38.303 55.216 37.671 55.252 37.015 55.252ZM37.015 55.252C36.303 55.252 35.675 55.204 35.131 55.108C34.595 55.02 34.147 54.88 33.787 54.688C33.427 54.496 33.155 54.248 32.971 53.944C32.787 53.632 32.695 53.256 32.695 52.816C32.695 52.616 32.711 52.412 32.743 52.204C32.775 51.988 32.815 51.772 32.863 51.556C32.919 51.34 32.975 51.132 33.031 50.932L33.931 51.16C33.899 51.28 33.863 51.424 33.823 51.592C33.783 51.752 33.747 51.916 33.715 52.084C33.691 52.252 33.679 52.404 33.679 52.54C33.679 52.956 33.783 53.292 33.991 53.548C34.207 53.796 34.579 53.98 35.107 54.1C35.635 54.212 36.375 54.268 37.327 54.268L37.567 54.868L37.015 55.252ZM39.031 50.188C38.863 50.188 38.719 50.132 38.599 50.02C38.487 49.9 38.431 49.76 38.431 49.6C38.431 49.44 38.487 49.3 38.599 49.18C38.719 49.06 38.863 49 39.031 49C39.191 49 39.327 49.06 39.439 49.18C39.559 49.3 39.619 49.44 39.619 49.6C39.619 49.76 39.559 49.9 39.439 50.02C39.327 50.132 39.191 50.188 39.031 50.188ZM37.387 50.188C37.219 50.188 37.075 50.132 36.955 50.02C36.843 49.9 36.787 49.76 36.787 49.6C36.787 49.44 36.843 49.3 36.955 49.18C37.075 49.06 37.219 49 37.387 49C37.547 49 37.683 49.06 37.795 49.18C37.915 49.3 37.975 49.44 37.975 49.6C37.975 49.76 37.915 49.9 37.795 50.02C37.683 50.132 37.547 50.188 37.387 50.188ZM45.4482 55.06L45.5682 54.076C45.9602 54.076 46.2722 54.052 46.5042 54.004C46.7362 53.956 46.9042 53.86 47.0082 53.716C47.1122 53.564 47.1642 53.34 47.1642 53.044C47.1642 52.844 47.1322 52.608 47.0682 52.336C47.0042 52.056 46.9202 51.76 46.8162 51.448C46.7122 51.136 46.6002 50.828 46.4802 50.524L47.4522 50.164C47.5562 50.42 47.6522 50.712 47.7402 51.04C47.8362 51.368 47.9162 51.692 47.9802 52.012C48.0442 52.332 48.0762 52.612 48.0762 52.852C48.0762 53.172 48.0402 53.456 47.9682 53.704C47.9042 53.944 47.8042 54.152 47.6682 54.328C47.5322 54.496 47.3562 54.636 47.1402 54.748C46.9322 54.852 46.6882 54.932 46.4082 54.988C46.1282 55.036 45.8082 55.06 45.4482 55.06ZM46.7322 57.292C46.5642 57.292 46.4202 57.232 46.3002 57.112C46.1882 57 46.1322 56.864 46.1322 56.704C46.1322 56.544 46.1882 56.404 46.3002 56.284C46.4202 56.164 46.5642 56.104 46.7322 56.104C46.8922 56.104 47.0282 56.164 47.1402 56.284C47.2602 56.404 47.3202 56.544 47.3202 56.704C47.3202 56.864 47.2602 57 47.1402 57.112C47.0282 57.232 46.8922 57.292 46.7322 57.292ZM63.3061 46.636L60.8821 55H59.6581L57.7141 48.268L55.6981 55L54.4861 55.012L52.1461 46.636H53.3101L55.1341 53.728L57.1501 46.636H58.3741L60.2941 53.704L62.1301 46.636H63.3061ZM65.0651 47.356C64.8571 47.356 64.6811 47.284 64.5371 47.14C64.3931 46.996 64.3211 46.82 64.3211 46.612C64.3211 46.404 64.3931 46.228 64.5371 46.084C64.6811 45.94 64.8571 45.868 65.0651 45.868C65.2651 45.868 65.4331 45.94 65.5691 46.084C65.7131 46.228 65.7851 46.404 65.7851 46.612C65.7851 46.82 65.7131 46.996 65.5691 47.14C65.4331 47.284 65.2651 47.356 65.0651 47.356ZM65.5931 48.424V55H64.5011V48.424H65.5931ZM70.6583 48.304C71.4583 48.304 72.1063 48.548 72.6023 49.036C73.0983 49.516 73.3463 50.212 73.3463 51.124V55H72.2663V51.28C72.2663 50.624 72.1023 50.124 71.7743 49.78C71.4463 49.428 70.9983 49.252 70.4303 49.252C69.8543 49.252 69.3943 49.432 69.0503 49.792C68.7143 50.152 68.5463 50.676 68.5463 51.364V55H67.4543V48.424H68.5463V49.36C68.7623 49.024 69.0543 48.764 69.4223 48.58C69.7983 48.396 70.2103 48.304 70.6583 48.304ZM74.7221 51.688C74.7221 51.016 74.8581 50.428 75.1301 49.924C75.4021 49.412 75.7741 49.016 76.2461 48.736C76.7261 48.456 77.2621 48.316 77.8541 48.316C78.3661 48.316 78.8421 48.436 79.2821 48.676C79.7221 48.908 80.0581 49.216 80.2901 49.6V46.12H81.3941V55H80.2901V53.764C80.0741 54.156 79.7541 54.48 79.3301 54.736C78.9061 54.984 78.4101 55.108 77.8421 55.108C77.2581 55.108 76.7261 54.964 76.2461 54.676C75.7741 54.388 75.4021 53.984 75.1301 53.464C74.8581 52.944 74.7221 52.352 74.7221 51.688ZM80.2901 51.7C80.2901 51.204 80.1901 50.772 79.9901 50.404C79.7901 50.036 79.5181 49.756 79.1741 49.564C78.8381 49.364 78.4661 49.264 78.0581 49.264C77.6501 49.264 77.2781 49.36 76.9421 49.552C76.6061 49.744 76.3381 50.024 76.1381 50.392C75.9381 50.76 75.8381 51.192 75.8381 51.688C75.8381 52.192 75.9381 52.632 76.1381 53.008C76.3381 53.376 76.6061 53.66 76.9421 53.86C77.2781 54.052 77.6501 54.148 78.0581 54.148C78.4661 54.148 78.8381 54.052 79.1741 53.86C79.5181 53.66 79.7901 53.376 79.9901 53.008C80.1901 52.632 80.2901 52.196 80.2901 51.7ZM86.1074 55.108C85.4914 55.108 84.9314 54.968 84.4274 54.688C83.9314 54.408 83.5394 54.012 83.2514 53.5C82.9714 52.98 82.8314 52.38 82.8314 51.7C82.8314 51.028 82.9754 50.436 83.2634 49.924C83.5594 49.404 83.9594 49.008 84.4634 48.736C84.9674 48.456 85.5314 48.316 86.1554 48.316C86.7794 48.316 87.3434 48.456 87.8474 48.736C88.3514 49.008 88.7474 49.4 89.0354 49.912C89.3314 50.424 89.4794 51.02 89.4794 51.7C89.4794 52.38 89.3274 52.98 89.0234 53.5C88.7274 54.012 88.3234 54.408 87.8114 54.688C87.2994 54.968 86.7314 55.108 86.1074 55.108ZM86.1074 54.148C86.4994 54.148 86.8674 54.056 87.2114 53.872C87.5554 53.688 87.8314 53.412 88.0394 53.044C88.2554 52.676 88.3634 52.228 88.3634 51.7C88.3634 51.172 88.2594 50.724 88.0514 50.356C87.8434 49.988 87.5714 49.716 87.2354 49.54C86.8994 49.356 86.5354 49.264 86.1434 49.264C85.7434 49.264 85.3754 49.356 85.0394 49.54C84.7114 49.716 84.4474 49.988 84.2474 50.356C84.0474 50.724 83.9474 51.172 83.9474 51.7C83.9474 52.236 84.0434 52.688 84.2354 53.056C84.4354 53.424 84.6994 53.7 85.0274 53.884C85.3554 54.06 85.7154 54.148 86.1074 54.148ZM99.6752 48.424L97.6232 55H96.4952L94.9112 49.78L93.3272 55H92.1992L90.1352 48.424H91.2512L92.7632 53.944L94.3952 48.424H95.5112L97.1072 53.956L98.5952 48.424H99.6752ZM103.087 55.108C102.583 55.108 102.131 55.024 101.731 54.856C101.331 54.68 101.015 54.44 100.783 54.136C100.551 53.824 100.423 53.468 100.399 53.068H101.527C101.559 53.396 101.711 53.664 101.983 53.872C102.263 54.08 102.627 54.184 103.075 54.184C103.491 54.184 103.819 54.092 104.059 53.908C104.299 53.724 104.419 53.492 104.419 53.212C104.419 52.924 104.291 52.712 104.035 52.576C103.779 52.432 103.383 52.292 102.847 52.156C102.359 52.028 101.959 51.9 101.647 51.772C101.343 51.636 101.079 51.44 100.855 51.184C100.639 50.92 100.531 50.576 100.531 50.152C100.531 49.816 100.631 49.508 100.831 49.228C101.031 48.948 101.315 48.728 101.683 48.568C102.051 48.4 102.471 48.316 102.943 48.316C103.671 48.316 104.259 48.5 104.707 48.868C105.155 49.236 105.395 49.74 105.427 50.38H104.335C104.311 50.036 104.171 49.76 103.915 49.552C103.667 49.344 103.331 49.24 102.907 49.24C102.515 49.24 102.203 49.324 101.971 49.492C101.739 49.66 101.623 49.88 101.623 50.152C101.623 50.368 101.691 50.548 101.827 50.692C101.971 50.828 102.147 50.94 102.355 51.028C102.571 51.108 102.867 51.2 103.243 51.304C103.715 51.432 104.099 51.56 104.395 51.688C104.691 51.808 104.943 51.992 105.151 52.24C105.367 52.488 105.479 52.812 105.487 53.212C105.487 53.572 105.387 53.896 105.187 54.184C104.987 54.472 104.703 54.7 104.335 54.868C103.975 55.028 103.559 55.108 103.087 55.108ZM109.76 47.32V46.324H112.016V55H110.912V47.32H109.76ZM113.603 47.32V46.324H115.859V55H114.755V47.32H113.603ZM121.995 43.696L118.707 57.04H117.627L120.903 43.696H121.995ZM123.154 47.32V46.324H125.41V55H124.306V47.32H123.154ZM127.286 50.572C127.286 49.196 127.51 48.124 127.958 47.356C128.406 46.58 129.19 46.192 130.31 46.192C131.422 46.192 132.202 46.58 132.65 47.356C133.098 48.124 133.322 49.196 133.322 50.572C133.322 51.972 133.098 53.06 132.65 53.836C132.202 54.612 131.422 55 130.31 55C129.19 55 128.406 54.612 127.958 53.836C127.51 53.06 127.286 51.972 127.286 50.572ZM132.242 50.572C132.242 49.876 132.194 49.288 132.098 48.808C132.01 48.32 131.822 47.928 131.534 47.632C131.254 47.336 130.846 47.188 130.31 47.188C129.766 47.188 129.35 47.336 129.062 47.632C128.782 47.928 128.594 48.32 128.498 48.808C128.41 49.288 128.366 49.876 128.366 50.572C128.366 51.292 128.41 51.896 128.498 52.384C128.594 52.872 128.782 53.264 129.062 53.56C129.35 53.856 129.766 54.004 130.31 54.004C130.846 54.004 131.254 53.856 131.534 53.56C131.822 53.264 132.01 52.872 132.098 52.384C132.194 51.896 132.242 51.292 132.242 50.572ZM139.081 43.696L135.793 57.04H134.713L137.989 43.696H139.081ZM142.112 50.488C141.664 50.312 141.32 50.056 141.08 49.72C140.84 49.384 140.72 48.976 140.72 48.496C140.72 48.064 140.828 47.676 141.044 47.332C141.26 46.98 141.58 46.704 142.004 46.504C142.436 46.296 142.956 46.192 143.564 46.192C144.172 46.192 144.688 46.296 145.112 46.504C145.544 46.704 145.868 46.98 146.084 47.332C146.308 47.676 146.42 48.064 146.42 48.496C146.42 48.96 146.296 49.368 146.048 49.72C145.8 50.064 145.46 50.32 145.028 50.488C145.524 50.64 145.916 50.908 146.204 51.292C146.5 51.668 146.648 52.124 146.648 52.66C146.648 53.18 146.52 53.636 146.264 54.028C146.008 54.412 145.644 54.712 145.172 54.928C144.708 55.136 144.172 55.24 143.564 55.24C142.956 55.24 142.42 55.136 141.956 54.928C141.5 54.712 141.144 54.412 140.888 54.028C140.632 53.636 140.504 53.18 140.504 52.66C140.504 52.124 140.648 51.664 140.936 51.28C141.224 50.896 141.616 50.632 142.112 50.488ZM145.364 48.628C145.364 48.14 145.204 47.764 144.884 47.5C144.564 47.236 144.124 47.104 143.564 47.104C143.012 47.104 142.576 47.236 142.256 47.5C141.936 47.764 141.776 48.144 141.776 48.64C141.776 49.088 141.94 49.448 142.268 49.72C142.604 49.992 143.036 50.128 143.564 50.128C144.1 50.128 144.532 49.992 144.86 49.72C145.196 49.44 145.364 49.076 145.364 48.628ZM143.564 50.968C142.972 50.968 142.488 51.108 142.112 51.388C141.736 51.66 141.548 52.072 141.548 52.624C141.548 53.136 141.728 53.548 142.088 53.86C142.456 54.172 142.948 54.328 143.564 54.328C144.18 54.328 144.668 54.172 145.028 53.86C145.388 53.548 145.568 53.136 145.568 52.624C145.568 52.088 145.384 51.68 145.016 51.4C144.648 51.112 144.164 50.968 143.564 50.968ZM152.358 43.696L149.07 57.04H147.99L151.266 43.696H152.358ZM159.146 47.176L155.81 55H154.706L158.09 47.284H153.458V46.348H159.146V47.176ZM168.392 48.388C168.216 47.5 167.668 47.056 166.748 47.056C166.036 47.056 165.504 47.332 165.152 47.884C164.8 48.428 164.628 49.328 164.636 50.584C164.82 50.168 165.124 49.844 165.548 49.612C165.98 49.372 166.46 49.252 166.988 49.252C167.812 49.252 168.468 49.508 168.956 50.02C169.452 50.532 169.7 51.24 169.7 52.144C169.7 52.688 169.592 53.176 169.376 53.608C169.168 54.04 168.848 54.384 168.416 54.64C167.992 54.896 167.476 55.024 166.868 55.024C166.044 55.024 165.4 54.84 164.936 54.472C164.472 54.104 164.148 53.596 163.964 52.948C163.78 52.3 163.688 51.5 163.688 50.548C163.688 47.612 164.712 46.144 166.76 46.144C167.544 46.144 168.16 46.356 168.608 46.78C169.056 47.204 169.32 47.74 169.4 48.388H168.392ZM166.76 50.176C166.416 50.176 166.092 50.248 165.788 50.392C165.484 50.528 165.236 50.74 165.044 51.028C164.86 51.308 164.768 51.652 164.768 52.06C164.768 52.668 164.944 53.164 165.296 53.548C165.648 53.924 166.152 54.112 166.808 54.112C167.368 54.112 167.812 53.94 168.14 53.596C168.476 53.244 168.644 52.772 168.644 52.18C168.644 51.556 168.484 51.068 168.164 50.716C167.844 50.356 167.376 50.176 166.76 50.176ZM170.909 53.068V52.24L175.121 46.408H176.429V52.12H177.629V53.068H176.429V55H175.349V53.068H170.909ZM175.397 47.548L172.169 52.12H175.397V47.548ZM182.063 59.716C181.927 59.188 181.807 58.672 181.703 58.168C181.607 57.664 181.535 57.2 181.487 56.776C181.439 56.352 181.415 56.004 181.415 55.732C181.415 55.244 181.503 54.84 181.679 54.52C181.855 54.192 182.091 53.94 182.387 53.764C182.683 53.58 183.011 53.456 183.371 53.392C183.739 53.328 184.115 53.308 184.499 53.332C184.891 53.348 185.259 53.396 185.603 53.476C185.627 53.204 185.611 52.944 185.555 52.696C185.507 52.44 185.423 52.216 185.303 52.024C185.191 51.824 185.047 51.668 184.871 51.556C184.695 51.444 184.495 51.388 184.271 51.388C184.071 51.388 183.883 51.432 183.707 51.52C183.531 51.608 183.363 51.744 183.203 51.928C183.051 52.104 182.903 52.324 182.759 52.588L182.015 52.18C182.223 51.748 182.451 51.404 182.699 51.148C182.955 50.892 183.223 50.708 183.503 50.596C183.783 50.476 184.059 50.416 184.331 50.416C184.739 50.416 185.083 50.504 185.363 50.68C185.643 50.848 185.863 51.072 186.023 51.352C186.191 51.624 186.311 51.92 186.383 52.24C186.463 52.552 186.503 52.852 186.503 53.14C186.503 53.34 186.479 53.54 186.431 53.74C186.383 53.94 186.323 54.12 186.251 54.28C186.187 54.44 186.123 54.564 186.059 54.652C185.627 54.524 185.223 54.432 184.847 54.376C184.471 54.32 184.131 54.304 183.827 54.328C183.531 54.344 183.275 54.408 183.059 54.52C182.843 54.632 182.679 54.792 182.567 55C182.455 55.208 182.399 55.472 182.399 55.792C182.399 56.088 182.423 56.44 182.471 56.848C182.519 57.256 182.587 57.684 182.675 58.132C182.763 58.588 182.867 59.036 182.987 59.476L182.063 59.716ZM190.479 55.06C189.839 55.06 189.347 54.988 189.003 54.844C188.667 54.7 188.435 54.476 188.307 54.172C188.179 53.868 188.107 53.476 188.091 52.996L187.851 46.432H188.835L189.075 52.612C189.091 53.004 189.127 53.308 189.183 53.524C189.247 53.732 189.383 53.876 189.591 53.956C189.807 54.036 190.143 54.076 190.599 54.076C190.767 54.076 190.887 54.124 190.959 54.22C191.039 54.308 191.079 54.416 191.079 54.544C191.079 54.672 191.023 54.792 190.911 54.904C190.799 55.008 190.655 55.06 190.479 55.06ZM198.999 55.06C198.791 55.06 198.527 55.04 198.207 55C197.895 54.952 197.575 54.872 197.247 54.76C196.927 54.648 196.655 54.492 196.431 54.292L197.415 53.8C197.695 53.912 197.983 53.988 198.279 54.028C198.583 54.06 198.863 54.076 199.119 54.076C199.287 54.076 199.407 54.124 199.479 54.22C199.559 54.308 199.599 54.416 199.599 54.544C199.599 54.672 199.543 54.792 199.431 54.904C199.319 55.008 199.175 55.06 198.999 55.06ZM190.479 55.06L190.599 54.076H193.107C193.803 54.076 194.403 54.048 194.907 53.992C195.419 53.928 195.839 53.836 196.167 53.716C196.495 53.596 196.739 53.444 196.899 53.26C197.059 53.068 197.139 52.844 197.139 52.588C197.139 52.452 197.095 52.304 197.007 52.144C196.919 51.984 196.783 51.848 196.599 51.736C196.415 51.616 196.171 51.556 195.867 51.556C195.483 51.556 195.099 51.656 194.715 51.856C194.339 52.056 193.979 52.308 193.635 52.612C193.299 52.908 192.999 53.212 192.735 53.524C192.471 53.836 192.259 54.108 192.099 54.34L191.055 54.304C191.311 53.888 191.615 53.464 191.967 53.032C192.327 52.592 192.719 52.188 193.143 51.82C193.575 51.444 194.027 51.144 194.499 50.92C194.971 50.688 195.451 50.572 195.939 50.572C196.379 50.572 196.755 50.664 197.067 50.848C197.387 51.024 197.631 51.264 197.799 51.568C197.975 51.872 198.063 52.216 198.063 52.6C198.063 52.976 197.927 53.356 197.655 53.74C197.383 54.116 196.915 54.412 196.251 54.628C195.915 54.74 195.531 54.828 195.099 54.892C194.667 54.956 194.175 55 193.623 55.024C193.071 55.048 192.443 55.06 191.739 55.06H190.479ZM191.619 53.872L191.379 46.432H192.351L192.591 53.032L191.619 53.872ZM195.351 49.336C195.183 49.336 195.039 49.28 194.919 49.168C194.807 49.048 194.751 48.908 194.751 48.748C194.751 48.588 194.807 48.448 194.919 48.328C195.039 48.208 195.183 48.148 195.351 48.148C195.511 48.148 195.647 48.208 195.759 48.328C195.879 48.448 195.939 48.588 195.939 48.748C195.939 48.908 195.879 49.048 195.759 49.168C195.647 49.28 195.511 49.336 195.351 49.336ZM198.999 55.06L199.119 54.076C199.455 54.076 199.719 54.048 199.911 53.992C200.103 53.928 200.247 53.812 200.343 53.644C200.447 53.468 200.535 53.216 200.607 52.888C200.679 52.56 200.767 52.132 200.871 51.604L201.807 51.784C201.775 51.928 201.739 52.088 201.699 52.264C201.659 52.44 201.623 52.616 201.591 52.792C201.567 52.96 201.555 53.108 201.555 53.236C201.555 53.396 201.591 53.54 201.663 53.668C201.735 53.796 201.891 53.896 202.131 53.968C202.371 54.04 202.739 54.076 203.235 54.076C203.403 54.076 203.523 54.124 203.595 54.22C203.675 54.308 203.715 54.416 203.715 54.544C203.715 54.672 203.659 54.792 203.547 54.904C203.435 55.008 203.291 55.06 203.115 55.06C202.595 55.06 202.187 55.016 201.891 54.928C201.595 54.832 201.379 54.692 201.243 54.508C201.107 54.316 201.015 54.084 200.967 53.812L201.327 53.836C201.199 54.092 201.059 54.3 200.907 54.46C200.763 54.62 200.603 54.744 200.427 54.832C200.251 54.92 200.047 54.98 199.815 55.012C199.583 55.044 199.311 55.06 198.999 55.06ZM200.871 50.368C200.703 50.368 200.559 50.312 200.439 50.2C200.327 50.08 200.271 49.94 200.271 49.78C200.271 49.62 200.327 49.48 200.439 49.36C200.559 49.24 200.703 49.18 200.871 49.18C201.031 49.18 201.167 49.24 201.279 49.36C201.399 49.48 201.459 49.62 201.459 49.78C201.459 49.94 201.399 50.08 201.279 50.2C201.167 50.312 201.031 50.368 200.871 50.368ZM203.112 55.06L203.22 54.076C203.676 54.076 203.996 54.032 204.18 53.944C204.364 53.856 204.468 53.7 204.492 53.476C204.524 53.252 204.532 52.94 204.516 52.54L204.288 46.432H205.26L205.5 52.432C205.516 52.856 205.5 53.232 205.452 53.56C205.412 53.888 205.308 54.164 205.14 54.388C204.98 54.612 204.736 54.78 204.408 54.892C204.088 55.004 203.656 55.06 203.112 55.06ZM209.477 57.784L209.129 56.872C209.713 56.68 210.197 56.46 210.581 56.212C210.973 55.964 211.281 55.7 211.505 55.42C211.737 55.14 211.901 54.856 211.997 54.568C212.093 54.272 212.141 53.988 212.141 53.716C212.141 53.324 212.053 52.928 211.877 52.528C211.709 52.12 211.521 51.736 211.313 51.376L212.189 50.932C212.341 51.212 212.473 51.488 212.585 51.76C212.705 52.032 212.809 52.288 212.897 52.528C212.993 52.768 213.069 52.988 213.125 53.188C213.237 53.532 213.381 53.768 213.557 53.896C213.741 54.016 213.989 54.076 214.301 54.076C214.469 54.076 214.589 54.124 214.661 54.22C214.741 54.308 214.781 54.416 214.781 54.544C214.781 54.672 214.725 54.792 214.613 54.904C214.501 55.008 214.357 55.06 214.181 55.06C213.829 55.06 213.541 55 213.317 54.88C213.101 54.752 212.937 54.588 212.825 54.388C212.713 54.18 212.637 53.964 212.597 53.74L212.981 53.956C212.981 54.484 212.861 54.964 212.621 55.396C212.389 55.836 212.089 56.216 211.721 56.536C211.353 56.864 210.969 57.132 210.569 57.34C210.169 57.548 209.805 57.696 209.477 57.784ZM214.187 55.06L214.307 54.076C214.507 54.076 214.727 54.076 214.967 54.076C215.215 54.068 215.463 54.06 215.711 54.052C215.967 54.044 216.203 54.028 216.419 54.004C216.635 53.972 216.815 53.932 216.959 53.884C217.247 53.78 217.471 53.652 217.631 53.5C217.791 53.34 217.903 53.132 217.967 52.876C218.039 52.612 218.075 52.276 218.075 51.868C218.075 51.532 218.031 51.22 217.943 50.932C217.855 50.644 217.731 50.412 217.571 50.236C217.411 50.06 217.219 49.972 216.995 49.972C216.811 49.972 216.643 50.044 216.491 50.188C216.347 50.324 216.231 50.5 216.143 50.716C216.063 50.932 216.023 51.148 216.023 51.364C216.023 51.532 216.055 51.676 216.119 51.796C216.191 51.916 216.307 52.012 216.467 52.084C216.627 52.148 216.835 52.18 217.091 52.18C217.323 52.18 217.555 52.156 217.787 52.108C218.027 52.06 218.231 51.996 218.399 51.916L218.447 52.756C218.319 52.844 218.175 52.916 218.015 52.972C217.855 53.028 217.687 53.068 217.511 53.092C217.335 53.116 217.159 53.128 216.983 53.128C216.575 53.128 216.227 53.064 215.939 52.936C215.659 52.8 215.443 52.62 215.291 52.396C215.147 52.164 215.075 51.9 215.075 51.604C215.075 51.3 215.123 50.996 215.219 50.692C215.315 50.38 215.451 50.096 215.627 49.84C215.803 49.584 216.015 49.38 216.263 49.228C216.511 49.068 216.787 48.988 217.091 48.988C217.523 48.988 217.879 49.128 218.159 49.408C218.447 49.688 218.659 50.056 218.795 50.512C218.939 50.96 219.011 51.436 219.011 51.94C219.011 52.54 218.907 53.056 218.699 53.488C218.499 53.912 218.163 54.264 217.691 54.544C217.507 54.648 217.283 54.736 217.019 54.808C216.763 54.872 216.479 54.924 216.167 54.964C215.863 55.004 215.543 55.028 215.207 55.036C214.871 55.052 214.531 55.06 214.187 55.06ZM216.863 47.752C216.695 47.752 216.551 47.696 216.431 47.584C216.319 47.464 216.263 47.324 216.263 47.164C216.263 47.004 216.319 46.864 216.431 46.744C216.551 46.624 216.695 46.564 216.863 46.564C217.023 46.564 217.159 46.624 217.271 46.744C217.391 46.864 217.451 47.004 217.451 47.164C217.451 47.324 217.391 47.464 217.271 47.584C217.159 47.696 217.023 47.752 216.863 47.752ZM220.25 57.76L220.034 56.776C220.514 56.712 220.954 56.62 221.354 56.5C221.762 56.388 222.11 56.224 222.398 56.008C222.694 55.792 222.922 55.508 223.082 55.156C223.242 54.804 223.322 54.364 223.322 53.836C223.322 53.292 223.222 52.84 223.022 52.48C222.822 52.12 222.562 51.94 222.242 51.94C222.074 51.94 221.918 52.004 221.774 52.132C221.63 52.26 221.51 52.432 221.414 52.648C221.326 52.864 221.282 53.1 221.282 53.356C221.282 53.5 221.314 53.62 221.378 53.716C221.442 53.804 221.534 53.876 221.654 53.932C221.782 53.98 221.942 54.016 222.134 54.04C222.326 54.064 222.55 54.076 222.806 54.076H225.338C225.506 54.076 225.626 54.124 225.698 54.22C225.778 54.308 225.818 54.416 225.818 54.544C225.818 54.672 225.762 54.792 225.65 54.904C225.538 55.008 225.394 55.06 225.218 55.06H222.35C221.99 55.06 221.654 55.008 221.342 54.904C221.038 54.8 220.79 54.64 220.598 54.424C220.414 54.2 220.322 53.908 220.322 53.548C220.322 53.212 220.374 52.892 220.478 52.588C220.582 52.276 220.722 52 220.898 51.76C221.082 51.512 221.294 51.316 221.534 51.172C221.782 51.028 222.05 50.956 222.338 50.956C222.706 50.956 223.034 51.064 223.322 51.28C223.61 51.496 223.838 51.824 224.006 52.264C224.174 52.696 224.258 53.244 224.258 53.908C224.258 54.652 224.106 55.292 223.802 55.828C223.506 56.372 223.058 56.804 222.458 57.124C221.866 57.444 221.13 57.656 220.25 57.76ZM225.214 55.06L225.334 54.076C225.734 54.076 226.046 54.048 226.27 53.992C226.494 53.928 226.662 53.812 226.774 53.644C226.894 53.468 226.99 53.216 227.062 52.888C227.134 52.56 227.222 52.132 227.326 51.604L228.262 51.784C228.23 51.928 228.194 52.088 228.154 52.264C228.114 52.44 228.078 52.616 228.046 52.792C228.022 52.96 228.01 53.108 228.01 53.236C228.01 53.356 228.018 53.468 228.034 53.572C228.05 53.676 228.11 53.764 228.214 53.836C228.318 53.908 228.494 53.968 228.742 54.016C228.99 54.056 229.346 54.076 229.81 54.076C229.978 54.076 230.098 54.124 230.17 54.22C230.25 54.308 230.29 54.416 230.29 54.544C230.29 54.672 230.234 54.792 230.122 54.904C230.01 55.008 229.866 55.06 229.69 55.06C229.202 55.06 228.814 55.036 228.526 54.988C228.238 54.932 228.018 54.852 227.866 54.748C227.722 54.644 227.618 54.516 227.554 54.364C227.498 54.204 227.454 54.02 227.422 53.812L227.782 53.836C227.654 54.092 227.514 54.3 227.362 54.46C227.218 54.62 227.05 54.744 226.858 54.832C226.666 54.92 226.434 54.98 226.162 55.012C225.898 55.044 225.582 55.06 225.214 55.06ZM228.418 50.368C228.25 50.368 228.106 50.312 227.986 50.2C227.874 50.08 227.818 49.94 227.818 49.78C227.818 49.62 227.874 49.48 227.986 49.36C228.106 49.24 228.25 49.18 228.418 49.18C228.578 49.18 228.714 49.24 228.826 49.36C228.946 49.48 229.006 49.62 229.006 49.78C229.006 49.94 228.946 50.08 228.826 50.2C228.714 50.312 228.578 50.368 228.418 50.368ZM226.774 50.368C226.606 50.368 226.462 50.312 226.342 50.2C226.23 50.08 226.174 49.94 226.174 49.78C226.174 49.62 226.23 49.48 226.342 49.36C226.462 49.24 226.606 49.18 226.774 49.18C226.934 49.18 227.07 49.24 227.182 49.36C227.302 49.48 227.362 49.62 227.362 49.78C227.362 49.94 227.302 50.08 227.182 50.2C227.07 50.312 226.934 50.368 226.774 50.368ZM229.69 55.06L229.81 54.076C230.034 54.076 230.222 54.028 230.374 53.932C230.526 53.836 230.674 53.676 230.818 53.452C230.962 53.228 231.118 52.928 231.286 52.552C231.518 52.04 231.746 51.652 231.97 51.388C232.202 51.124 232.43 50.944 232.654 50.848C232.886 50.752 233.114 50.704 233.338 50.704C233.61 50.704 233.862 50.776 234.094 50.92C234.326 51.056 234.53 51.24 234.706 51.472C234.882 51.704 235.018 51.96 235.114 52.24C235.218 52.512 235.27 52.784 235.27 53.056C235.27 53.536 235.186 53.92 235.018 54.208C234.85 54.488 234.634 54.692 234.37 54.82C234.114 54.94 233.846 55 233.566 55C233.318 55 232.998 54.952 232.606 54.856C232.222 54.76 231.734 54.516 231.142 54.124L231.61 53.368C232.002 53.616 232.354 53.788 232.666 53.884C232.986 53.972 233.25 54.016 233.458 54.016C233.69 54.016 233.874 53.984 234.01 53.92C234.146 53.848 234.246 53.748 234.31 53.62C234.374 53.492 234.406 53.348 234.406 53.188C234.406 52.956 234.35 52.724 234.238 52.492C234.126 52.26 233.982 52.068 233.806 51.916C233.638 51.764 233.458 51.688 233.266 51.688C233.122 51.688 232.982 51.728 232.846 51.808C232.71 51.888 232.57 52.036 232.426 52.252C232.282 52.468 232.118 52.78 231.934 53.188C231.742 53.62 231.558 53.964 231.382 54.22C231.214 54.468 231.042 54.652 230.866 54.772C230.69 54.892 230.506 54.968 230.314 55C230.13 55.04 229.922 55.06 229.69 55.06Z" fill="white"/>
<path fill-rule="evenodd" clip-rule="evenodd" d="M249.668 26.0238L259.147 24.45V35.4762H249.668V26.0238ZM260.313 24.2738L273.001 22V35.3H260.313V24.2738ZM249.668 36.7H259.147V47.7262L249.668 46.1488V36.7ZM260.313 36.7H273.001V50L260.459 47.8988" fill="white"/>
<path d="M117.695 103.012C117.695 102.724 117.735 102.404 117.815 102.052C117.895 101.7 118.023 101.312 118.199 100.888L119.063 101.224C118.935 101.56 118.839 101.868 118.775 102.148C118.711 102.428 118.679 102.688 118.679 102.928C118.679 103.368 118.787 103.724 119.003 103.996C119.227 104.276 119.523 104.48 119.891 104.608C120.267 104.736 120.679 104.8 121.127 104.8C121.671 104.8 122.127 104.74 122.495 104.62C122.863 104.508 123.155 104.352 123.371 104.152C123.587 103.952 123.739 103.724 123.827 103.468C123.923 103.22 123.971 102.96 123.971 102.688C123.971 102.336 123.943 102.004 123.887 101.692C123.839 101.38 123.771 101.076 123.683 100.78C123.603 100.476 123.515 100.168 123.419 99.856L124.391 99.592C124.479 99.896 124.547 100.144 124.595 100.336C124.643 100.52 124.679 100.668 124.703 100.78C124.735 100.892 124.763 100.992 124.787 101.08C124.875 101.376 124.991 101.596 125.135 101.74C125.279 101.876 125.443 101.968 125.627 102.016C125.819 102.056 126.015 102.076 126.215 102.076C126.383 102.076 126.503 102.124 126.575 102.22C126.655 102.308 126.695 102.416 126.695 102.544C126.695 102.672 126.639 102.792 126.527 102.904C126.415 103.008 126.271 103.06 126.095 103.06C125.759 103.06 125.479 103.004 125.255 102.892C125.031 102.772 124.855 102.624 124.727 102.448C124.607 102.272 124.527 102.088 124.487 101.896L124.979 102.508C124.955 102.916 124.875 103.312 124.739 103.696C124.611 104.088 124.403 104.44 124.115 104.752C123.827 105.072 123.435 105.324 122.939 105.508C122.451 105.692 121.835 105.784 121.091 105.784C120.635 105.784 120.203 105.728 119.795 105.616C119.387 105.504 119.023 105.332 118.703 105.1C118.391 104.876 118.143 104.588 117.959 104.236C117.783 103.892 117.695 103.484 117.695 103.012ZM121.319 98.224C121.151 98.224 121.007 98.168 120.887 98.056C120.775 97.936 120.719 97.796 120.719 97.636C120.719 97.476 120.775 97.336 120.887 97.216C121.007 97.096 121.151 97.036 121.319 97.036C121.479 97.036 121.615 97.096 121.727 97.216C121.847 97.336 121.907 97.476 121.907 97.636C121.907 97.796 121.847 97.936 121.727 98.056C121.615 98.168 121.479 98.224 121.319 98.224ZM126.101 103.06L126.221 102.076C126.445 102.076 126.633 102.028 126.785 101.932C126.937 101.836 127.085 101.676 127.229 101.452C127.373 101.228 127.529 100.928 127.697 100.552C127.929 100.04 128.157 99.652 128.381 99.388C128.613 99.124 128.841 98.944 129.065 98.848C129.297 98.752 129.525 98.704 129.749 98.704C130.021 98.704 130.273 98.776 130.505 98.92C130.737 99.056 130.941 99.24 131.117 99.472C131.293 99.704 131.429 99.96 131.525 100.24C131.629 100.512 131.681 100.784 131.681 101.056C131.681 101.536 131.597 101.92 131.429 102.208C131.261 102.488 131.045 102.692 130.781 102.82C130.525 102.94 130.257 103 129.977 103C129.729 103 129.409 102.952 129.017 102.856C128.633 102.76 128.145 102.516 127.553 102.124L128.021 101.368C128.413 101.616 128.765 101.788 129.077 101.884C129.397 101.972 129.661 102.016 129.869 102.016C130.101 102.016 130.285 101.984 130.421 101.92C130.557 101.848 130.657 101.748 130.721 101.62C130.785 101.492 130.817 101.348 130.817 101.188C130.817 100.956 130.761 100.724 130.649 100.492C130.537 100.26 130.393 100.068 130.217 99.916C130.049 99.764 129.869 99.688 129.677 99.688C129.533 99.688 129.393 99.728 129.257 99.808C129.121 99.888 128.981 100.036 128.837 100.252C128.693 100.468 128.529 100.78 128.345 101.188C128.153 101.62 127.969 101.964 127.793 102.22C127.625 102.468 127.453 102.652 127.277 102.772C127.101 102.892 126.917 102.968 126.725 103C126.541 103.04 126.333 103.06 126.101 103.06ZM133.473 103L133.269 95.272H134.241L134.445 103H133.473ZM134.553 94.108C134.313 94.108 134.097 94.068 133.905 93.988C133.713 93.9 133.537 93.816 133.377 93.736C133.217 93.656 133.069 93.616 132.933 93.616C132.789 93.616 132.657 93.652 132.537 93.724C132.425 93.796 132.305 93.896 132.177 94.024L131.721 93.64C131.905 93.408 132.097 93.228 132.297 93.1C132.497 92.964 132.709 92.896 132.933 92.896C133.133 92.896 133.317 92.936 133.485 93.016C133.653 93.096 133.821 93.176 133.989 93.256C134.165 93.336 134.353 93.376 134.553 93.376C134.681 93.376 134.801 93.356 134.913 93.316C135.025 93.268 135.161 93.196 135.321 93.1L135.669 93.592C135.413 93.816 135.193 93.96 135.009 94.024C134.833 94.08 134.681 94.108 134.553 94.108ZM139.586 103.012C139.586 102.82 139.602 102.616 139.634 102.4C139.674 102.176 139.73 101.94 139.802 101.692C139.882 101.436 139.978 101.168 140.09 100.888L140.954 101.224C140.874 101.448 140.802 101.66 140.738 101.86C140.682 102.06 140.638 102.248 140.606 102.424C140.582 102.6 140.57 102.768 140.57 102.928C140.57 103.336 140.678 103.68 140.894 103.96C141.11 104.24 141.39 104.448 141.734 104.584C142.086 104.728 142.462 104.8 142.862 104.8C143.646 104.8 144.258 104.66 144.698 104.38C145.138 104.108 145.446 103.744 145.622 103.288C145.798 102.84 145.874 102.348 145.85 101.812L145.586 94.432H146.582L146.774 100.516C146.79 100.924 146.854 101.244 146.966 101.476C147.086 101.7 147.246 101.856 147.446 101.944C147.646 102.032 147.866 102.076 148.106 102.076C148.274 102.076 148.394 102.124 148.466 102.22C148.546 102.308 148.586 102.416 148.586 102.544C148.586 102.672 148.53 102.792 148.418 102.904C148.306 103.008 148.162 103.06 147.986 103.06C147.738 103.06 147.526 103.028 147.35 102.964C147.174 102.892 147.03 102.804 146.918 102.7C146.806 102.588 146.718 102.464 146.654 102.328C146.59 102.184 146.542 102.04 146.51 101.896L146.846 102.232C146.814 102.656 146.722 103.076 146.57 103.492C146.426 103.916 146.202 104.3 145.898 104.644C145.594 104.988 145.186 105.264 144.674 105.472C144.17 105.68 143.546 105.784 142.802 105.784C142.386 105.784 141.982 105.72 141.59 105.592C141.206 105.472 140.862 105.292 140.558 105.052C140.262 104.812 140.026 104.52 139.85 104.176C139.674 103.84 139.586 103.452 139.586 103.012ZM147.991 103.06L148.111 102.076C148.511 102.076 148.823 102.048 149.047 101.992C149.271 101.928 149.439 101.812 149.551 101.644C149.671 101.468 149.767 101.216 149.839 100.888C149.911 100.56 149.999 100.132 150.103 99.604L151.039 99.784C151.007 99.928 150.971 100.088 150.931 100.264C150.891 100.44 150.855 100.616 150.823 100.792C150.799 100.96 150.787 101.108 150.787 101.236C150.787 101.356 150.795 101.468 150.811 101.572C150.827 101.676 150.887 101.764 150.991 101.836C151.095 101.908 151.271 101.968 151.519 102.016C151.767 102.056 152.123 102.076 152.587 102.076C152.755 102.076 152.875 102.124 152.947 102.22C153.027 102.308 153.067 102.416 153.067 102.544C153.067 102.672 153.011 102.792 152.899 102.904C152.787 103.008 152.643 103.06 152.467 103.06C151.979 103.06 151.591 103.036 151.303 102.988C151.015 102.932 150.795 102.852 150.643 102.748C150.499 102.644 150.395 102.516 150.331 102.364C150.275 102.204 150.231 102.02 150.199 101.812L150.559 101.836C150.431 102.092 150.291 102.3 150.139 102.46C149.995 102.62 149.827 102.744 149.635 102.832C149.443 102.92 149.211 102.98 148.939 103.012C148.675 103.044 148.359 103.06 147.991 103.06ZM151.015 105.328C150.847 105.328 150.703 105.268 150.583 105.148C150.471 105.036 150.415 104.9 150.415 104.74C150.415 104.58 150.471 104.44 150.583 104.32C150.703 104.2 150.847 104.14 151.015 104.14C151.175 104.14 151.311 104.2 151.423 104.32C151.543 104.44 151.603 104.58 151.603 104.74C151.603 104.9 151.543 105.036 151.423 105.148C151.311 105.268 151.175 105.328 151.015 105.328ZM149.371 105.328C149.203 105.328 149.059 105.268 148.939 105.148C148.827 105.036 148.771 104.9 148.771 104.74C148.771 104.58 148.827 104.44 148.939 104.32C149.059 104.2 149.203 104.14 149.371 104.14C149.531 104.14 149.667 104.2 149.779 104.32C149.899 104.44 149.959 104.58 149.959 104.74C149.959 104.9 149.899 105.036 149.779 105.148C149.667 105.268 149.531 105.328 149.371 105.328ZM152.468 103.06L152.588 102.076C152.812 102.076 152.988 102.028 153.116 101.932C153.252 101.836 153.38 101.676 153.5 101.452C153.628 101.228 153.788 100.928 153.98 100.552C154.172 100.168 154.364 99.856 154.556 99.616C154.756 99.368 154.948 99.176 155.132 99.04C155.324 98.896 155.504 98.796 155.672 98.74C155.84 98.684 155.996 98.656 156.14 98.656C156.404 98.656 156.64 98.716 156.848 98.836C157.056 98.948 157.252 99.144 157.436 99.424C157.62 99.696 157.808 100.072 158 100.552C158.184 100.992 158.348 101.324 158.492 101.548C158.644 101.764 158.8 101.908 158.96 101.98C159.128 102.044 159.316 102.076 159.524 102.076C159.692 102.076 159.812 102.124 159.884 102.22C159.964 102.308 160.004 102.416 160.004 102.544C160.004 102.672 159.948 102.792 159.836 102.904C159.724 103.008 159.58 103.06 159.404 103.06C159.092 103.06 158.804 103.008 158.54 102.904C158.284 102.8 158.068 102.636 157.892 102.412L158.06 102.16C157.972 102.408 157.852 102.612 157.7 102.772C157.556 102.924 157.392 103.036 157.208 103.108C157.024 103.188 156.828 103.228 156.62 103.228C156.356 103.228 156.084 103.172 155.804 103.06C155.532 102.948 155.268 102.788 155.012 102.58C154.756 102.372 154.532 102.128 154.34 101.848C154.132 102.216 153.932 102.488 153.74 102.664C153.556 102.832 153.364 102.94 153.164 102.988C152.964 103.036 152.732 103.06 152.468 103.06ZM154.796 100.936C154.932 101.16 155.076 101.356 155.228 101.524C155.388 101.692 155.548 101.832 155.708 101.944C155.868 102.048 156.024 102.128 156.176 102.184C156.336 102.232 156.48 102.256 156.608 102.256C156.888 102.256 157.092 102.156 157.22 101.956C157.356 101.756 157.352 101.476 157.208 101.116C157.136 100.932 157.06 100.752 156.98 100.576C156.908 100.4 156.828 100.24 156.74 100.096C156.652 99.944 156.552 99.828 156.44 99.748C156.328 99.66 156.204 99.616 156.068 99.616C155.948 99.616 155.82 99.656 155.684 99.736C155.556 99.816 155.416 99.952 155.264 100.144C155.12 100.336 154.964 100.6 154.796 100.936ZM167.049 103.06C166.713 103.06 166.405 103.04 166.125 103C165.845 102.952 165.593 102.868 165.369 102.748C165.145 102.628 164.957 102.456 164.805 102.232C164.653 102 164.537 101.696 164.457 101.32L165.165 100.9C165.269 101.22 165.397 101.464 165.549 101.632C165.701 101.8 165.905 101.916 166.161 101.98C166.425 102.044 166.761 102.076 167.169 102.076C167.337 102.076 167.457 102.124 167.529 102.22C167.609 102.308 167.649 102.416 167.649 102.544C167.649 102.672 167.593 102.792 167.481 102.904C167.369 103.008 167.225 103.06 167.049 103.06ZM159.405 103.06L159.513 102.076C159.929 102.076 160.337 102.044 160.737 101.98C161.137 101.916 161.529 101.824 161.913 101.704C162.297 101.584 162.665 101.44 163.017 101.272C163.377 101.096 163.717 100.896 164.037 100.672C163.829 100.488 163.589 100.328 163.317 100.192C163.045 100.056 162.745 99.952 162.417 99.88C162.097 99.8 161.757 99.76 161.397 99.76C161.269 99.76 161.149 99.764 161.037 99.772C160.925 99.78 160.813 99.796 160.701 99.82C160.589 99.836 160.461 99.86 160.317 99.892L160.125 98.98C160.341 98.916 160.557 98.868 160.773 98.836C160.989 98.796 161.197 98.776 161.397 98.776C161.813 98.776 162.189 98.828 162.525 98.932C162.861 99.028 163.165 99.148 163.437 99.292C163.717 99.436 163.977 99.58 164.217 99.724C164.465 99.868 164.705 99.992 164.937 100.096C165.169 100.192 165.409 100.24 165.657 100.24H165.909L165.993 101.104C165.649 101.104 165.333 101.152 165.045 101.248C164.757 101.344 164.473 101.468 164.193 101.62C163.921 101.764 163.633 101.92 163.329 102.088C163.025 102.248 162.689 102.404 162.321 102.556C161.953 102.7 161.529 102.82 161.049 102.916C160.577 103.012 160.029 103.06 159.405 103.06ZM167.046 103.06L167.166 102.076C167.638 102.076 168.006 102.06 168.27 102.028C168.534 101.988 168.722 101.896 168.834 101.752C168.946 101.6 169.002 101.364 169.002 101.044C169.002 100.844 168.97 100.608 168.906 100.336C168.842 100.056 168.758 99.76 168.654 99.448C168.55 99.136 168.438 98.828 168.318 98.524L169.29 98.164C169.394 98.42 169.49 98.712 169.578 99.04C169.674 99.368 169.754 99.692 169.818 100.012C169.882 100.332 169.914 100.612 169.914 100.852C169.914 101.252 169.858 101.592 169.746 101.872C169.642 102.152 169.474 102.38 169.242 102.556C169.01 102.732 168.71 102.86 168.342 102.94C167.982 103.02 167.55 103.06 167.046 103.06ZM169.662 96.916C169.494 96.916 169.35 96.86 169.23 96.748C169.118 96.628 169.062 96.488 169.062 96.328C169.062 96.168 169.118 96.028 169.23 95.908C169.35 95.788 169.494 95.728 169.662 95.728C169.822 95.728 169.958 95.788 170.07 95.908C170.19 96.028 170.25 96.168 170.25 96.328C170.25 96.488 170.19 96.628 170.07 96.748C169.958 96.86 169.822 96.916 169.662 96.916ZM168.018 96.916C167.85 96.916 167.706 96.86 167.586 96.748C167.474 96.628 167.418 96.488 167.418 96.328C167.418 96.168 167.474 96.028 167.586 95.908C167.706 95.788 167.85 95.728 168.018 95.728C168.178 95.728 168.314 95.788 168.426 95.908C168.546 96.028 168.606 96.168 168.606 96.328C168.606 96.488 168.546 96.628 168.426 96.748C168.314 96.86 168.178 96.916 168.018 96.916Z" fill="#808080"/>
<path d="M177.335 94.294C177.335 94.1249 177.458 93.981 177.626 93.9553C179.567 93.6566 181.401 92.872 182.958 91.6744L183.835 91L184.712 91.6744C186.269 92.872 188.103 93.6566 190.044 93.9553C190.212 93.981 190.335 94.1249 190.335 94.294V99.4501C190.335 101.656 189.191 103.704 187.312 104.86L183.835 107L180.358 104.86C178.479 103.704 177.335 101.656 177.335 99.4501V94.294Z" stroke="#808080" stroke-linejoin="round"/>
<path d="M180.835 98.5L183.335 101L187.335 97" stroke="#808080" stroke-linecap="round" stroke-linejoin="round"/>
</svg>
